<?xml version="1.0" encoding="UTF-8" standalone="no"?>
<!-- Created with Inkscape (http://www.inkscape.org/) -->

<svg
   width="176mm"
   height="28mm"
   viewBox="0 0 176 28"
   version="1.1"
   id="svg5"
   inkscape:version="1.1.1 (c3084ef, 2021-09-22)"
   sodipodi:docname="christoph-sketch-effect.svg"
   xmlns:inkscape="http://www.inkscape.org/namespaces/inkscape"
   xmlns:sodipodi="http://sodipodi.sourceforge.net/DTD/sodipodi-0.dtd"
   xmlns="http://www.w3.org/2000/svg"
   xmlns:svg="http://www.w3.org/2000/svg">
  <sodipodi:namedview
     id="namedview7"
     pagecolor="#ffffff"
     bordercolor="#666666"
     borderopacity="1.0"
     inkscape:pageshadow="2"
     inkscape:pageopacity="0.0"
     inkscape:pagecheckerboard="0"
     inkscape:document-units="mm"
     showgrid="false"
     width="209mm"
     inkscape:zoom="0.61825196"
     inkscape:cx="232.10602"
     inkscape:cy="634.85443"
     inkscape:window-width="1920"
     inkscape:window-height="1027"
     inkscape:window-x="0"
     inkscape:window-y="88"
     inkscape:window-maximized="1"
     inkscape:current-layer="layer1" />
  <defs
     id="defs2">
    <inkscape:path-effect
       effect="rough_hatches"
       id="path-effect7147"
       is_visible="true"
       lpeversion="1"
       direction="105.7134,118.25928 , 2.0790895,2.1397695"
       dist_rdm="75;1"
       growth="0"
       do_bend="true"
       bender="105.7134,123.25928 , 5,0"
       bottom_edge_variation="2.484383;1"
       top_edge_variation="2.484383;1"
       bottom_tgt_variation="0;1"
       top_tgt_variation="0;1"
       scale_bf="1"
       scale_bb="1"
       scale_tf="1"
       scale_tb="1"
       top_smth_variation="0;1"
       bottom_smth_variation="0;1"
       fat_output="true"
       stroke_width_top="1"
       stroke_width_bottom="1"
       front_thickness="1"
       back_thickness="0.25" />
    <inkscape:path-effect
       effect="rough_hatches"
       id="path-effect1389"
       is_visible="true"
       lpeversion="1"
       direction="69.542511,112.04539 , 2.8886892,-2.1397695"
       dist_rdm="75;1"
       growth="0"
       do_bend="true"
       bender="27.175076,135.87536 , 16.126801,-6.8472622"
       bottom_edge_variation="6.1197407;1"
       top_edge_variation="6.1197407;1"
       bottom_tgt_variation="0;1"
       top_tgt_variation="0;1"
       scale_bf="1"
       scale_bb="1"
       scale_tf="1"
       scale_tb="1"
       top_smth_variation="0;1"
       bottom_smth_variation="0;1"
       fat_output="true"
       stroke_width_top="1"
       stroke_width_bottom="1"
       front_thickness="1"
       back_thickness="0.25" />
  </defs>
  <g
     inkscape:label="Layer 1"
     inkscape:groupmode="layer"
     id="layer1">
    <g
       aria-label="CHRISTOPH"
       id="text5224"
       style="font-size:31.7604px;line-height:1.25;font-family:Futura;-inkscape-font-specification:'Futura, Normal';fill:#e6eaef;fill-opacity:1;stroke-width:0.794013"
       transform="translate(-18.402018,-109.5562)">
      <path
         d="m 38.27683,133.26855 c 0,0 -2.436196,1.42876 -2.427092,1.42612 -0.821385,0.2381 2.11934,-2.21258 2.122393,-2.92706 0.0025,-0.59102 -1.497518,0.41109 -2.962689,1.54973 -1.468234,1.14102 -2.92116,2.42571 -2.651432,2.41176 -0.03526,0.002 5.036237,-4.23328 5.04288,-4.76984 0.0063,-0.50534 -1.593169,0.64107 -3.227164,1.9103 -1.635734,1.27058 -3.322033,2.66803 -3.271949,2.67153 -0.395481,-0.0276 3.418833,-3.20032 2.260183,-2.92053 -1.911431,0.46157 -3.022658,1.38936 -3.043162,1.3842 -0.433569,-0.10909 2.139779,-2.28278 1.717329,-2.31025 -0.880945,-0.0573 -3.906572,2.44867 -3.609641,2.55724 -0.08382,-0.0306 2.277197,-2.01342 1.735245,-2.12063 -0.934984,-0.18498 -3.632483,2.01674 -3.3638,2.14665 -0.08895,-0.043 2.055422,-1.84114 1.60752,-2.00256 -0.825919,-0.29765 -2.902989,1.45509 -2.878181,1.4707 -0.281883,-0.17739 1.671908,-1.82892 1.245166,-2.09386 -0.669611,-0.41573 -2.953028,1.33898 -2.677496,1.55909 -0.05421,-0.0433 1.839992,-1.65297 1.659273,-1.79365 -0.471401,-0.36697 -0.83698,-0.0259 -0.55878,0.21011 0.01494,0.0127 1.860346,-1.58864 1.526816,-1.88326 -0.483379,-0.427 -2.602161,1.02233 -2.306889,1.31088 -0.06499,-0.0635 1.767598,-1.66874 1.583516,-1.86445 -0.429088,-0.4562 -2.842877,1.66932 -2.590221,1.94178 0.01321,0.0143 1.860963,-1.60078 1.690563,-1.80378 -0.525624,-0.6262 -1.608977,0.85814 -1.480754,1.00493 0.133671,0.15302 1.774758,-1.72147 1.663084,-1.86988 -0.42151,-0.56019 -2.698518,1.469 -2.700151,1.4668 -0.214156,-0.2885 1.690122,-1.99029 1.514734,-2.33541 -0.345499,-0.67985 -2.971861,1.688 -2.947263,1.73149 -0.155174,-0.27435 1.886771,-2.11607 1.75574,-2.57338 -0.258306,-0.90151 -2.072873,0.90462 -1.925715,1.23465 0.01574,0.0353 2.155904,-1.92513 2.059151,-2.46314 -0.177434,-0.98666 -1.729302,0.50915 -1.676014,0.66451 -0.07101,-0.20703 2.294107,-2.44737 2.2778,-2.885 -0.0379,-1.01711 -2.292186,1.33236 -2.216876,1.62429 -0.01091,-0.0423 2.529626,-2.49283 2.56288,-3.05454 0.07413,-1.2521 -2.769427,1.80961 -2.726426,2.05538 -0.01306,-0.0747 2.800305,-2.82867 3.178953,-4.13869 0.306866,-1.06168 -0.764831,-0.31259 -1.893959,0.72669 -1.135137,1.04481 -2.407733,2.44284 -2.398456,2.7067 0.0013,0.0374 3.555131,-3.49904 4.490626,-4.87828 1.184207,-1.74593 0.100402,-0.827 -1.101499,0.32316 -1.269416,1.21476 -2.892142,2.85457 -2.893037,2.87344 0.01248,-0.26318 2.575828,-2.96408 4.830812,-5.58038 2.254985,-2.61629 4.215435,-5.14799 3.89074,-5.07278 -0.657682,0.15234 -2.573419,2.13874 -4.462132,4.16616 -1.872976,2.01052 -3.758437,4.11275 -3.816368,4.41228 0.006,-0.031 2.088473,-2.1992 3.859089,-4.28988 1.767202,-2.08666 3.249731,-4.10792 2.601915,-3.82499 -1.045113,0.45644 -2.72238,2.23785 -4.188673,3.88052 -1.471318,1.64831 -2.755357,3.18451 -2.755357,3.18451 0,0 1.710019,-1.60997 3.313094,-3.20632 1.606189,-1.59945 3.112441,-3.19149 3.044227,-3.16185 0.357755,-0.15548 -1.129535,1.7419 -2.840387,3.74382 -1.692697,1.98067 -3.662816,4.12962 -3.712237,4.37106 -0.125365,0.61245 2.262815,-1.56344 4.449376,-3.87162 2.188743,-2.31048 4.156866,-4.76017 3.925979,-4.70683 0.102971,-0.0238 -1.897598,2.41389 -4.122668,4.97033 -2.200957,2.52873 -4.694297,5.25932 -4.719164,5.68284 -0.08688,1.4797 2.711322,-1.28334 4.030627,-3.19661 -0.01964,0.0285 -1.115554,1.17309 -2.247429,2.34805 -1.127751,1.17068 -2.301751,2.38457 -2.298275,2.53024 0.0096,0.40183 1.120762,-0.45411 2.20418,-1.41406 1.082238,-0.9589 2.126806,-2.01869 2.127,-2.01934 -0.235909,0.7855 -3.286229,3.76877 -3.22568,4.13869 0.150923,0.92208 2.730207,-1.77982 2.749632,-2.05538 -0.01291,0.18311 -2.675142,2.73926 -2.597368,3.05455 0.195127,0.791 2.243956,-1.28776 2.235215,-1.62429 0.0026,0.10146 -2.462865,2.42526 -2.310373,2.885 0.283826,0.85568 1.711336,-0.49946 1.683517,-0.66452 0.04214,0.25003 -2.172098,2.26725 -2.086961,2.46314 0.263233,0.60568 1.976329,-1.1014 1.939655,-1.23465 0.05392,0.19589 -2.054326,2.08715 -1.784795,2.57338 0.445715,0.80407 3.072537,-1.51872 2.966812,-1.73148 0.06061,0.12196 -1.891527,1.85604 -1.541101,2.33541 0.559716,0.76567 2.871504,-1.25795 2.716712,-1.46681 0.05895,0.0795 -1.811971,1.72169 -1.684196,1.86988 0.494638,0.57368 1.570142,-0.91068 1.492099,-1.00493 0.01707,0.0206 -1.85556,1.64589 -1.710927,1.80378 0.381159,0.4161 2.833715,-1.70335 2.612144,-1.94178 0.0205,0.0221 -1.835474,1.63629 -1.604567,1.86445 0.366917,0.36257 2.5612,-1.09718 2.32169,-1.31088 0.152791,0.13633 -1.712001,1.74285 -1.548079,1.88326 0.438566,0.37566 0.841742,0.0103 0.561152,-0.21011 -0.0076,-0.006 -1.915473,1.60345 -1.679524,1.79366 0.450832,0.36342 2.863479,-1.45382 2.695099,-1.55909 0.217045,0.1357 -1.751694,1.78779 -1.268807,2.09386 0.766276,0.48569 3.113172,-1.39168 2.894786,-1.4707 0.195094,0.0706 -1.943842,1.85004 -1.63013,2.00256 0.631358,0.30696 3.62323,-2.10003 3.388037,-2.14666 0.250211,0.0496 -2.090522,1.99899 -1.759188,2.12063 0.694535,0.25499 4.097878,-2.52734 3.638514,-2.55724 0.08892,0.006 -2.450344,2.13187 -1.743413,2.31025 1.118822,0.28232 3.155035,-1.40738 3.05879,-1.3842 0.658587,-0.1586 -3.018498,2.86988 -2.293158,2.92053 0.610299,0.0426 2.28591,-1.04056 3.771044,-2.16554 1.489239,-1.12809 2.776779,-2.28863 2.779801,-2.41629 -0.0026,0.11115 -1.337825,1.30902 -2.664234,2.4764 -1.32641,1.16738 -2.641827,2.30427 -2.4325,2.29345 1.075056,-0.0556 5.657898,-3.90044 5.658848,-3.96149 -0.0063,0.40594 -3.534986,3.32564 -2.15544,2.92706 2.223925,-0.64256 3.277339,-2.12299 3.277339,-2.12299 z m 0,-16.4723 c 0,0 0.876435,-1.73323 1.19692,-1.47569 0.01723,0.0138 -0.508608,0.59625 -0.513913,0.16002 -0.01246,-1.02415 -0.431158,-0.56275 -0.07382,-0.29495 0.03574,0.0268 -0.09965,0.18006 -0.104772,-0.38266 -0.01055,-1.15979 -0.58769,-0.51531 -0.590356,-0.51697 -0.349529,-0.21807 0.820196,-1.56065 0.771348,-2.15672 -0.09623,-1.1742 -2.759578,1.9279 -2.706541,1.95129 -0.334574,-0.14755 1.438315,-2.20548 0.983987,-2.41138 -0.93525,-0.42386 -3.502929,2.91274 -3.175299,3.00605 0.0437,0.0124 1.903368,-2.11729 1.39373,-2.3056 -0.918829,-0.3395 -2.14303,1.08491 -1.921764,1.11126 -0.266293,-0.0317 1.72552,-2.3714 1.3357,-2.46432 -0.838985,-0.2 -3.687912,3.13328 -3.195911,3.12253 -0.05669,0.001 2.107388,-2.51191 1.635444,-2.58374 -0.933509,-0.14207 -3.002396,2.26618 -2.492499,2.18091 -0.106262,0.0178 2.298065,-2.80311 1.418118,-2.82246 -0.704218,-0.0155 -1.810407,0.8851 -2.618361,1.7032 -0.806791,0.81693 -1.314352,1.55491 -0.720709,1.20832 0.0721,-0.0421 3.338345,-3.80538 2.858287,-3.77504 -0.480951,0.0304 -1.86613,1.66865 -3.21722,3.29929 -1.3486,1.62763 -2.667294,3.25367 -2.667294,3.25367 0,0 1.538629,-1.47532 2.933124,-2.94111 1.396956,-1.46838 2.655118,-2.9324 2.379389,-2.91498 0.0082,-5.2e-4 -0.847541,1.03859 -1.657838,2.03015 -0.811086,0.99252 -1.57018,1.93461 -1.243071,1.74488 1.766709,-1.02471 3.372808,-2.9115 3.371942,-2.91152 0.52749,0.0116 -1.977473,2.91051 -1.449985,2.82246 1.169212,-0.19515 2.851032,-2.13 2.517123,-2.1809 0.153576,0.0234 -2.087199,2.59296 -1.664616,2.58374 1.01717,-0.0222 3.59317,-3.03601 3.231166,-3.12254 0.09013,0.0215 -1.95406,2.39389 -1.363524,2.46432 1.087961,0.12976 2.102558,-1.04883 1.934311,-1.11125 0.235855,0.0875 -1.661478,2.23653 -1.419761,2.30559 0.806628,0.23046 3.317279,-2.95683 3.209239,-3.00604 0.193617,0.0882 -1.601242,2.14986 -1.011214,2.41138 0.99599,0.44146 2.753903,-1.59281 2.728573,-1.9513 0.01488,0.21065 -1.372378,1.79438 -0.795698,2.15672 0.921099,0.57875 0.583569,0.94938 0.584519,0.51697 -3.62e-4,0.16478 -0.07684,0.24867 0.100451,0.38267 0.49603,0.37491 0.07096,0.83856 0.07049,0.29494 3.8e-5,0.0443 0.32655,-0.31342 0.51572,-0.16002 0.498673,0.40439 -0.565415,0.77883 -0.565415,0.77883 z"
         id="path7110"
         style="fill:#e6eaef;fill-opacity:1" />
      <path
         d="m 60.282667,135.24696 c 0,0 0.560235,-0.30698 0.561513,-0.74043 0.0026,-0.87377 -1.328761,0.21264 -0.748397,0.21264 0.04224,0 0.806949,-0.624 0.807782,-1.01653 0.0018,-0.83765 -2.194619,0.96919 -1.589169,0.96919 0.06732,0 2.191037,-1.75034 2.188724,-2.10041 -0.0053,-0.79927 -2.885897,1.59996 -2.418419,1.59996 -0.07065,0 2.583992,-2.21032 2.5793,-2.72695 -0.0088,-0.97237 -2.757451,1.36013 -2.752591,1.58897 -0.0045,-0.21201 2.376856,-2.23059 2.37456,-2.87949 -0.0039,-1.11573 -2.787491,1.29542 -2.780137,1.76404 2.91e-4,0.0185 3.031306,-2.59733 3.026755,-3.20968 -0.0081,-1.08797 -2.793968,1.37624 -2.790303,1.5634 -0.0053,-0.27246 1.441188,-1.5436 1.450296,-2.21506 0.01575,-1.1611 -2.846741,1.39731 -2.847217,1.73433 1.9e-4,-0.13441 4.542497,-4.24451 4.535613,-4.75199 -0.01368,-1.00875 -2.820089,1.61902 -2.808508,2.06929 -7.57e-4,-0.0294 2.64634,-2.48933 2.638057,-3.24439 -0.0139,-1.26735 -2.84344,1.43744 -2.842675,1.47053 -0.01067,-0.46142 1.48227,-1.89062 1.487767,-2.35203 0.01183,-0.99306 -2.900313,1.82232 -2.900307,1.8469 -1.17e-4,-0.48475 3.818021,-4.24268 3.814895,-5.04561 -0.0027,-0.68232 -1.142215,0.16637 -2.300298,1.17234 -1.162791,1.01006 -2.369466,2.18967 -2.366516,2.18967 -0.266113,0 1.04234,-1.40128 2.348994,-2.90094 1.315777,-1.51013 2.602663,-3.08723 2.598851,-3.49122 -0.01292,-1.36887 -2.925866,1.783 -2.923223,1.90542 -0.0093,-0.43219 1.929762,-2.53387 1.933409,-2.91561 0.0094,-0.98755 -2.98244,2.29444 -2.981713,2.57401 -7.53e-4,-0.28968 3.050138,-3.63904 3.058708,-4.64808 0.007,-0.82596 -0.741975,-0.35458 -1.485471,0.33433 -0.745819,0.69106 -1.524863,1.62954 -1.524428,1.74854 -0.0013,-0.35101 2.89693,-3.71235 2.417362,-3.71235 -1.017693,0 -2.64309,1.91531 -2.643466,2.44943 5.7e-5,-0.0807 2.803678,-3.39623 1.90016,-3.39623 -1.430613,0 -1.865601,1.37737 -1.865601,1.37737 0,0 1.288277,-0.6805 1.292229,-0.6805 0.544768,0 -1.935132,2.90562 -1.94144,3.39622 -0.0071,0.54942 0.780314,-0.0564 1.508216,-0.81018 0.724725,-0.75054 1.373675,-1.63925 1.165022,-1.63925 0.120818,0 -2.456124,2.96345 -2.462484,3.71236 -0.0057,0.66881 0.761268,0.16674 1.52897,-0.52097 0.763178,-0.68366 1.505809,-1.54081 1.506245,-1.56191 -0.01215,0.58855 -3.10881,3.9789 -3.115204,4.64809 -0.01183,1.23843 2.999367,-1.94606 3.012999,-2.57401 4.81e-4,-0.0221 -1.976414,2.11368 -1.968847,2.91561 0.0128,1.35655 2.945886,-1.72274 2.946383,-1.90542 -5.68e-4,0.20881 -1.389702,1.78838 -2.766748,3.34576 -1.368882,1.54815 -2.70428,3.0464 -2.258792,3.0464 1.4291,0 4.706691,-3.24241 4.707679,-3.36202 -0.0036,0.43392 -3.866403,4.22131 -3.876223,5.04561 -0.01589,1.33363 2.912535,-1.42221 2.922756,-1.84689 -0.0026,0.10697 -1.525034,1.56095 -1.516356,2.35202 0.0141,1.28557 2.860432,-1.37177 2.860549,-1.47053 -4.9e-4,0.41354 -2.682229,2.89516 -2.677492,3.2444 0.01124,0.82895 2.834123,-1.74132 2.83366,-2.06929 2.45e-4,0.1733 -4.587284,4.30327 -4.593371,4.75199 -0.01248,0.92017 2.864578,-1.58973 2.868297,-1.73433 -0.0089,0.34503 -1.481521,1.63619 -1.477219,2.21506 0.0077,1.03848 2.808453,-1.38303 2.809305,-1.5634 -0.0014,0.29525 -3.066764,2.92817 -3.065767,3.20968 0.0026,0.73158 2.800464,-1.63488 2.801577,-1.76404 -0.0029,0.33767 -2.414153,2.37357 -2.409558,2.87949 0.0086,0.94677 2.771157,-1.34603 2.771904,-1.58898 -6.54e-4,0.2128 -3.041842,2.72695 -2.612446,2.72695 0.967522,0 2.435655,-1.20134 2.437867,-1.59995 -2.81e-4,0.0506 -2.505679,2.1004 -2.214254,2.1004 0.82955,0 1.595962,-0.61985 1.60095,-0.96919 -0.0014,0.0958 -1.136649,1.01653 -0.820139,1.01653 0.854636,0 0.746445,0.0878 0.750982,-0.21264 -0.0021,0.13991 0.296443,0.0436 0.296443,0.0436 z m -13.511212,0 c 0,0 1.301756,-0.91137 1.296556,-1.29139 -0.01119,-0.81776 -1.47426,0.38488 -1.448292,0.38488 -0.512157,0 0.922929,-1.18111 0.91885,-1.83353 -0.0069,-1.10218 -2.182704,0.72209 -2.182111,0.7265 -0.05343,-0.39804 2.744193,-2.77685 2.734853,-3.40526 -0.01624,-1.09297 -3.344414,1.79313 -3.342584,1.89254 -0.0065,-0.35094 2.933304,-2.91186 2.930648,-3.21212 -0.0069,-0.77677 -2.390174,1.33677 -2.384096,1.56174 -0.0063,-0.23311 2.35034,-2.3228 2.343797,-3.10403 -0.01063,-1.26957 -2.786378,1.25638 -2.782295,1.45082 -0.0058,-0.27765 2.245255,-2.33032 2.245307,-2.77839 1.13e-4,-0.95085 -2.309818,1.19687 -2.301243,1.61459 -0.0013,-0.0625 2.307796,-2.37299 2.307796,-2.37299 0,0 -3.080802,2.68653 -3.077591,3.06986 0.0072,0.86455 2.316083,-1.2247 2.320868,-1.6146 -0.0014,0.11288 -2.284318,2.18602 -2.279078,2.7784 0.0094,1.06446 2.799806,-1.41815 2.799929,-1.45082 -0.0017,0.45566 -2.389528,2.56553 -2.381525,3.10403 0.01481,0.99658 2.401444,-1.06784 2.403078,-1.56175 5.7e-5,-0.0174 -2.973761,2.56095 -2.96969,3.21212 0.0069,1.10152 3.365982,-1.74667 3.365587,-1.89253 8.63e-4,0.3187 -2.857586,2.73891 -2.776243,3.40525 0.130471,1.0688 2.190369,-0.62931 2.190942,-0.7265 -0.0021,0.35258 -1.812043,1.83353 -0.941136,1.83353 1.409032,0 1.453504,-0.0352 1.45297,-0.38488 1.35e-4,0.0881 -0.445297,0.59453 -0.445297,0.59453 z m 10.512683,-14.57752 c 0,0 -3.400945,2.70615 -3.324736,2.70615 -0.379214,0 2.32019,-2.6791 1.940977,-2.6791 -0.549566,0 -3.88282,2.69939 -3.333254,2.69939 0.309538,0 1.547954,-2.34772 1.238416,-2.34772 -0.789135,0 -4.703377,2.69938 -3.914242,2.69938 -0.398028,0 3.426522,-3.80848 3.028494,-3.80848 -0.721403,0 -3.95628,2.69938 -3.234877,2.69938 -0.487083,0 1.257064,-1.73906 0.769981,-1.73906 -0.720822,0 -2.282489,1.21612 -3.715552,2.43119 -1.433063,1.21507 -2.737431,2.42908 -2.737466,2.42484 -0.002,-0.24729 1.171872,-1.48332 2.181259,-2.63823 1.014577,-1.16084 1.879553,-2.25838 1.445354,-2.25838 -1.406523,0 -3.608548,2.18894 -3.606786,2.38805 -0.0028,-0.31954 2.74522,-3.07001 2.747123,-3.38025 0.0053,-0.86869 -2.921625,2.10962 -2.921143,2.18966 -0.0044,-0.72841 3.507883,-4.33942 3.503497,-5.06783 -0.0036,-0.79559 -0.73701,-0.39037 -1.461933,0.20073 -0.730615,0.59574 -1.477832,1.39128 -1.477694,1.39955 -0.009,-0.54164 2.849786,-3.67755 2.847418,-4.48044 -0.0021,-0.71443 -0.737813,-0.2168 -1.471548,0.4551 -0.73867,0.67641 -1.498469,1.54065 -1.497844,1.58204 -0.0076,-0.5022 3.394396,-4.45001 2.941144,-4.9914 -0.725471,-0.86655 -2.638431,1.4503 -2.636731,1.52657 -0.01214,-0.54462 0.262256,-0.87753 -0.596108,-0.87753 -1.396224,0 -0.502612,-0.21321 -0.502612,-0.21321 0,0 -0.03607,0.91007 -0.07939,0.91007 0.499614,0 0.575718,-0.081 0.585442,0.87753 0.008,0.78485 0.672896,0.41308 1.343718,-0.1708 0.665228,-0.579 1.311787,-1.3555 1.311568,-1.35577 0.267827,0.32463 -3.004444,4.09924 -3.001813,4.9914 0.0022,0.73382 0.755044,0.29035 1.511765,-0.38015 0.755111,-0.66907 1.48132,-1.541 1.482388,-1.65699 -0.0036,0.3916 -2.905973,3.56669 -2.901877,4.48044 0.0033,0.73201 0.745992,0.33262 1.492981,-0.259 0.742002,-0.58768 1.466209,-1.35573 1.466098,-1.34127 -0.0054,0.70712 -3.55967,4.36071 -3.565095,5.06783 -0.0082,1.33521 2.936409,-1.56916 2.947757,-2.18967 0.0011,-0.0621 -2.786011,2.71494 -2.788208,3.38025 -0.0019,0.58906 0.927805,-0.002 1.847079,-0.75004 0.915688,-0.74501 1.80297,-1.63801 1.788732,-1.63801 0.509649,0 -3.682766,4.05817 -3.686129,4.89662 -0.0027,0.66472 1.684977,-0.54229 3.321965,-1.92686 1.632848,-1.38106 3.186754,-2.92918 3.190076,-2.92918 0.487083,0 -1.278201,1.73907 -0.791119,1.73907 0.713596,0 3.981284,-2.69939 3.267688,-2.69939 -0.235045,0 -3.30983,3.80849 -3.074785,3.80849 0.645865,0 4.592916,-2.69939 3.947052,-2.69939 -0.04921,0 -1.316164,2.34772 -1.266952,2.34772 0.885434,0 4.251498,-2.69938 3.366064,-2.69938 -0.378011,0 -2.351551,2.67909 -1.973541,2.67909 1.383543,0 4.0474,-3.40301 4.0474,-3.40301 z"
         id="path7112"
         style="fill:#e6eaef;fill-opacity:1" />
      <path
         d="m 82.061947,134.89232 c 0,0 -0.91248,0.15822 -0.573085,0.15822 -0.198584,0 -0.481989,0.23031 -0.76674,-0.16821 -0.482322,-0.67502 -1.74685,0.35081 -1.339578,0.35081 -0.130853,0 2.246612,-1.94608 1.922352,-2.38843 -0.14721,-0.20081 -2.793831,0.33539 -2.22429,1.13023 -0.13662,-0.19066 0.456492,-0.67895 0.319873,-0.86962 -0.05836,-0.0817 -2.778546,0.34637 -2.165251,1.22558 0.01535,0.022 2.218073,-1.80226 1.896593,-2.24982 -0.148754,-0.20709 -2.774348,0.33246 -2.187584,1.16854 0.02111,0.0301 1.558286,-1.2581 1.306108,-1.61173 -0.03299,-0.0463 -2.744342,0.35927 -2.20756,1.12984 -0.07406,-0.10632 2.313011,-2.13703 2.109189,-2.41981 -0.41087,-0.57003 -2.257767,1.02447 -2.268746,1.00888 -0.213168,-0.30268 1.471798,-1.76549 1.310255,-1.99035 -0.370081,-0.51513 -2.198789,1.08648 -2.120755,1.19765 -0.125233,-0.17841 3.020703,-2.96506 2.875454,-3.16159 -0.361366,-0.48895 -2.141158,1.1181 -1.927036,1.41444 0.184727,0.25565 0.736223,-1.05711 0.551496,-1.31277 -0.223681,-0.30841 -2.709195,0.32416 -2.17816,1.0734 -0.02444,-0.0345 1.085157,-1.03142 0.893242,-1.30001 -0.403935,-0.56532 -2.189423,1.05057 -2.17944,1.06487 -0.185427,-0.26564 2.24555,-2.68431 2.24555,-2.68431 0,0 -3.341083,2.92555 -3.028583,3.38118 0.182457,0.26602 2.709334,-0.32887 2.192383,-1.06488 0.04971,0.0708 -1.069594,1.06954 -0.909044,1.30002 0.365344,0.52446 2.181766,-1.08664 2.191207,-1.0734 0.17696,0.24815 -0.744413,1.06461 -0.567452,1.31276 0.340998,0.48001 2.15564,-1.1236 1.944228,-1.41444 0.0012,0.002 -3.170111,2.79012 -2.913882,3.1616 0.0476,0.069 2.736339,-0.34666 2.135312,-1.19765 0.02214,0.0313 -1.676403,1.49627 -1.334447,1.99034 0.207527,0.29984 2.760957,-0.33158 2.281009,-1.00887 0.06468,0.0913 -2.341199,2.1238 -2.138602,2.4198 0.397337,0.58051 2.306367,-1.00847 2.221293,-1.12984 0.114699,0.16363 -1.434834,1.45349 -1.325698,1.61174 0.303951,0.44073 2.218888,-1.14433 2.201788,-1.16854 0.182784,0.25884 -2.036951,2.08493 -1.923939,2.24981 0.305154,0.44523 2.243923,-1.13471 2.180147,-1.22557 0.133462,0.19014 -0.463905,0.67948 -0.330443,0.86962 0.329823,0.46824 2.254294,-1.10767 2.238028,-1.13023 0.184824,0.25638 -2.440985,2.38842 -1.951383,2.38842 1.027728,0 1.387617,-0.28848 1.343842,-0.35081 0.150435,0.21418 0.207362,0.16822 0.764696,0.16822 1.09971,0 1.437653,-0.85509 1.437653,-0.85509 z m -11.652521,0.005 c 0,0 -0.514916,-0.16451 -0.308488,-0.16451 -0.331539,0 0.08564,-0.33963 0.08659,-0.63736 0.0024,-0.74073 -1.033696,0.10986 -0.485944,0.10986 0.0096,0 1.127433,-0.91815 1.122801,-1.68802 -0.0073,-1.21965 -2.595308,0.94889 -2.587406,1.33376 -0.001,-0.0511 2.738154,-2.34646 2.734678,-2.76141 -0.0037,-0.4381 -1.057901,0.25205 -2.126974,1.04981 -1.070967,0.79918 -2.168448,1.7102 -2.168467,1.72091 7.45e-4,-0.42255 2.811121,-2.79076 2.820225,-3.4448 0.01567,-1.12615 -2.826106,1.32417 -2.826564,1.56743 4.01e-4,-0.21308 2.833599,-2.66174 2.841754,-3.24269 0.01496,-1.06554 -2.72065,1.35305 -2.720662,1.45854 4.1e-5,-0.36252 2.850071,-2.90363 2.854977,-3.30352 0.01102,-0.89812 -2.320145,1.22579 -2.316232,1.69933 -2.2e-5,-0.003 3.079713,-2.97624 3.079713,-2.97624 0,0 -3.864564,3.35284 -3.865811,3.6731 -0.0031,0.79611 2.326373,-1.26882 2.336887,-1.69932 -0.0017,0.0677 -2.886855,2.629 -2.89513,3.30351 -0.01402,1.14251 2.732453,-1.23184 2.73839,-1.45854 -0.0068,0.2579 -2.873906,2.72538 -2.881168,3.2427 -0.01367,0.97367 2.842152,-1.43461 2.845616,-1.56743 -0.0088,0.33929 -2.852094,2.72625 -2.862096,3.44479 -0.0081,0.57845 1.088024,-0.0213 2.179303,-0.8185 1.091843,-0.79759 2.149144,-1.77444 2.149816,-1.95221 -4.13e-4,0.10933 -2.771105,2.41958 -2.768243,2.76141 0.0065,0.77783 2.603743,-1.35399 2.603619,-1.33376 -0.0029,0.47001 -1.492441,1.68802 -1.143319,1.68802 0.887247,0 0.48052,0.33074 0.487279,-0.10986 -3.7e-5,0.002 -0.784625,0.63736 -0.09434,0.63736 1.230062,0 1.169193,-0.53236 1.169193,-0.53236 z m 6.248733,-10.46953 c 0,0 2.380375,-2.12793 2.832792,-3.33147 0.397979,-1.05871 -1.001073,0.0532 -2.491053,1.39902 -1.507262,1.36145 -3.181982,3.00366 -3.124057,3.08362 -0.05074,-0.07 1.84092,-1.89776 3.631435,-3.79427 1.803236,-1.90998 3.471845,-3.84833 3.470176,-4.20699 -0.0029,-0.63306 -2.185926,1.42387 -4.528018,3.6478 -2.342028,2.22387 -4.872411,4.61456 -4.848484,4.64874 -0.08222,-0.11744 2.062307,-2.21372 4.068251,-4.32779 2.005943,-2.11407 3.870865,-4.24592 3.828741,-4.43452 -0.09373,-0.41965 -2.271142,1.69483 -4.535837,3.92699 -2.260714,2.22823 -4.619654,4.56235 -4.35205,4.56235 -0.0015,0 2.293317,-2.14466 4.417471,-4.32192 2.124154,-2.17726 4.072885,-4.38712 4.030265,-4.51753 -0.110253,-0.33735 -2.88073,2.46444 -5.933013,5.3963 -3.04227,2.92223 -6.371117,5.94567 -6.371158,6.00351 1.29e-4,-0.18376 3.337474,-3.28003 6.331372,-6.36415 2.993899,-3.08412 5.64683,-6.1561 5.569232,-6.29126 -0.178929,-0.31167 -2.755489,2.32188 -5.553359,5.10577 -2.791027,2.77708 -5.819291,5.68408 -5.817724,5.88528 -3.5e-4,-0.0449 3.196658,-3.01395 6.059246,-6.00946 2.862588,-2.99552 5.385397,-6.01754 5.267354,-6.16848 -0.239731,-0.30656 -2.876024,2.42651 -5.736334,5.29436 -2.853363,2.86089 -5.945706,5.83567 -5.945404,5.97769 -2.32e-4,-0.10903 3.015368,-2.98728 5.691092,-5.88665 2.675723,-2.89938 5.007517,-5.81989 4.780317,-6.01346 -0.377247,-0.3214 -2.819152,2.13763 -5.394228,4.71299 -2.570745,2.57103 -5.290478,5.2454 -5.290602,5.33301 2.43e-4,-0.17214 2.627673,-2.80001 4.979068,-5.40546 2.351395,-2.60545 4.43063,-5.18849 4.25727,-5.27096 -0.364883,-0.17358 -2.456755,1.99323 -4.627351,4.21664 -2.170597,2.22342 -4.428937,4.50344 -4.428849,4.55626 -3.56e-4,-0.21472 2.229198,-2.55335 4.201553,-4.85715 1.972355,-2.3038 3.692756,-4.57278 3.389511,-4.6482 -0.525888,-0.13079 -2.327177,1.64511 -4.110855,3.46067 -1.783677,1.81555 -3.554909,3.67075 -3.554899,3.69855 -8.6e-5,-0.23806 1.653755,-2.10732 3.090798,-3.88085 1.447902,-1.78693 2.707098,-3.51834 2.365132,-3.54774 -0.59304,-0.051 -1.712994,0.91263 -2.717921,1.88808 -1.004926,0.97544 -1.895654,1.96272 -1.895714,1.9591 -0.0048,-0.2897 0.948404,-1.51768 1.755933,-2.64959 0.81272,-1.13918 1.495172,-2.20412 1.124941,-2.20412 -1.278585,0 -3.853179,3.05538 -3.853291,3.10553 0.0013,-0.56986 1.236116,-2.03025 0.759056,-2.03025 -1.015184,0 0.03053,-1.26694 0.03769,-0.77364 -0.0022,-0.15056 -0.263003,-0.0514 -0.263003,-0.0514 0,0 -0.31491,0.16848 -0.313542,0.74829 0.0029,1.22366 0.372722,0.77364 -0.04709,0.77364 0.11831,0 -0.769584,1.04705 -0.783733,2.03024 -0.01144,0.79513 1.023044,0.0317 2.02968,-0.95156 1.00001,-0.97679 1.939565,-2.15397 1.861358,-2.15397 0.381711,0 -2.944169,3.86861 -2.939869,4.85372 0.0034,0.77974 1.24385,-0.16643 2.438876,-1.32923 1.188688,-1.15663 2.297929,-2.51138 2.221519,-2.51795 0.174402,0.015 -1.114924,1.65333 -2.540993,3.39732 -1.413685,1.72884 -3.000245,3.60877 -3.005228,4.03126 -0.0084,0.71372 2.094855,-1.0613 4.062646,-3.02928 1.96462,-1.96481 3.75775,-4.11306 3.690126,-4.12993 0.154348,0.0385 -1.603873,2.2183 -3.564905,4.48674 -1.94236,2.24685 -4.137794,4.64712 -4.141694,5.0186 -0.0069,0.66057 2.546949,-1.49788 4.884075,-3.83895 2.337085,-2.34103 4.423758,-4.86456 4.278757,-4.93395 0.04541,0.0217 -2.074776,2.51818 -4.423107,5.09553 -2.325448,2.55223 -4.938656,5.2607 -4.942999,5.5809 -0.0083,0.60919 2.961229,-1.89721 5.67666,-4.54917 2.719656,-2.65609 5.161302,-5.47012 5.130276,-5.49683 0.122498,0.10545 -2.25325,2.94228 -4.93519,5.82184 -2.68194,2.87956 -5.678089,5.80186 -5.680861,6.07826 -0.0054,0.53526 3.299758,-2.23834 6.279703,-5.15042 2.987925,-2.91987 5.631434,-6.00162 5.539043,-6.12163 0.03277,0.0426 -2.534345,2.98254 -5.40889,5.96413 -2.874546,2.98159 -6.064816,6.00479 -6.065728,6.21381 -0.002,0.46314 3.204151,-2.21543 6.104579,-5.0264 2.908674,-2.81896 5.495826,-5.79429 5.400096,-5.96465 0.0073,0.013 -2.689269,3.0044 -5.699397,6.07881 -2.978726,3.04234 -6.351008,6.26386 -6.355029,6.5766 -0.0076,0.59157 3.440421,-2.15344 6.576711,-5.0872 3.141806,-2.93891 5.938561,-6.08207 5.86602,-6.3126 -0.0044,-0.014 -2.06258,2.19589 -4.245348,4.40924 -2.182768,2.21336 -4.49066,4.4302 -4.309828,4.4302 0.449895,0 2.863011,-2.02081 5.010769,-4.09239 2.147759,-2.07158 4.023184,-4.19391 3.980302,-4.39695 0.0067,0.0319 -1.918055,2.11327 -3.95657,4.24123 -2.030135,2.11922 -4.191242,4.31132 -4.046924,4.52108 0.256266,0.37249 2.78267,-1.63901 5.090494,-3.76965 2.310377,-2.13299 4.385839,-4.39219 4.386849,-4.52688 -0.0011,0.15323 -1.73889,2.06853 -3.568468,3.98802 -1.829578,1.9195 -3.751507,3.8432 -3.630395,4.01323 0.227869,0.31991 1.667515,-0.739 3.018577,-1.90902 1.359819,-1.17761 2.600285,-2.44288 2.651018,-2.57361 -0.24069,0.62023 -2.137834,2.6346 -2.137834,2.6346 z m -0.329724,-4.24682 c 0,0 -0.77801,0.45386 -1.594423,0.90724 -0.81223,0.45106 -1.652859,0.89699 -1.484812,0.8765 -0.16775,0.0204 0.877439,-0.65523 1.813883,-1.40409 0.963653,-0.77061 1.731122,-1.54911 1.750653,-1.84308 0.03751,-0.56463 -0.959277,0.37756 -2.232048,1.38437 -1.273025,1.00701 -3.064064,2.19599 -3.064064,2.19599 0,0 1.257618,-0.63618 2.376057,-1.30981 1.144824,-0.68952 2.099079,-1.38514 2.13436,-1.57368 -0.02099,0.11219 -0.956522,0.90939 -2.071528,1.72912 -1.088838,0.80049 -2.282261,1.5658 -1.884883,1.51804 0.753245,-0.0905 1.920304,-0.70705 2.800518,-1.30683 0.882426,-0.6013 1.456287,-1.17377 1.456287,-1.17377 z m -5.919009,2.0848 c 0,0 1.883237,-1.08599 3.318117,-2.23728 1.491118,-1.19642 2.424984,-2.37212 2.289002,-2.74755 -0.214844,-0.59315 -1.062756,0.13887 -1.993491,0.98132 -0.916358,0.82944 -2.176167,1.95875 -2.152204,2.09512 -3.12e-4,-0.002 1.543875,-1.13718 2.562752,-2.33124 1.039061,-1.21771 1.502057,-2.4231 1.136135,-2.68313 -0.538285,-0.38251 -1.330303,0.70218 -2.441391,1.90596 -1.114571,1.20756 -2.669614,2.54554 -2.66877,2.68847 -3.93e-4,-0.0666 1.279447,-1.11185 2.163019,-2.15017 0.883572,-1.03832 1.375629,-2.06967 1.253373,-2.1084 -0.351814,-0.11146 -0.797802,0.35522 -1.231255,0.87787 -0.423414,0.51055 -0.871764,1.11313 -0.84849,1.21297 -0.02912,-0.12494 0.687183,-1.02389 1.080697,-1.89902 0.393514,-0.87513 0.477395,-1.72645 0.191691,-1.75614 -0.547426,-0.0569 -0.986928,0.57136 -1.428248,1.24909 -0.424076,0.65125 -0.904483,1.43144 -0.896824,1.54607 -0.01247,-0.18666 0.247006,-0.66158 0.367645,-1.08982 0.120638,-0.42825 0.113264,-0.80983 -0.219337,-0.80983 -1.203325,0 -0.482421,-0.008 -0.482421,-0.008 0,0 0.404507,0.70489 0.144153,0.70489 0.306454,0 -0.333904,1.08928 -0.377562,1.89966 -0.03584,0.6652 0.874293,0.10976 1.685087,-0.83613 0.752709,-0.87812 1.125921,-1.9434 0.977311,-1.95903 0.109829,0.0115 -0.126833,0.78393 -0.582476,1.62412 -0.455643,0.8402 -1.162822,1.74821 -1.131024,2.03103 0.05563,0.49479 0.855206,0.0631 1.534142,-0.59377 0.660087,-0.63861 1.068655,-1.4079 0.797931,-1.49707 -0.0297,-0.01 -0.673044,0.95174 -1.633704,1.96727 -0.96066,1.01554 -2.272952,2.08507 -2.296623,2.29131 -0.04698,0.40931 1.907497,-0.726 3.369665,-1.98474 1.454705,-1.25232 2.296116,-2.6088 2.294962,-2.6097 0.205911,0.16005 -0.419319,1.31685 -1.561064,2.52384 -1.124167,1.18842 -2.749532,2.37127 -2.742968,2.49053 0.01605,0.29151 1.381424,-0.44981 2.528384,-1.28684 1.141516,-0.83306 1.998167,-1.74991 1.988582,-1.78959 0.05178,0.21438 -0.819425,1.23407 -2.11942,2.28515 -1.255739,1.01531 -2.875376,2.00281 -2.875376,2.00281 z"
         id="path7114"
         style="fill:#e6eaef;fill-opacity:1" />
      <path
         d="m 89.515291,134.8995 c 0,0 0.675645,-1.13389 1.148191,-1.13389 -0.0581,0 -0.189666,0.10982 -0.195634,-0.3264 -0.012,-0.87724 -3.229285,1.76688 -2.636378,1.76688 0.05478,0 0.886129,-0.67177 0.893988,-1.35866 0.01298,-1.13453 -0.985968,-0.31203 -0.731111,-0.21301 -0.111194,-0.0432 2.493512,-2.23082 2.48784,-2.62498 -0.01224,-0.85079 -3.930935,2.47002 -3.929356,2.63943 -0.0025,-0.27188 2.774382,-2.61447 2.775626,-3.05394 0.0026,-0.90577 -2.448179,1.2031 -2.442087,1.62625 -3.66e-4,-0.0254 2.77741,-2.40946 2.776142,-2.97536 -0.0023,-1.03979 -2.704283,1.33146 -2.699154,1.65589 -0.0021,-0.13237 2.788401,-2.58043 2.786119,-3.20459 -0.002,-0.55685 -0.994295,0.0683 -1.995673,0.82451 -1.004523,0.75858 -2.034441,1.65533 -2.034436,1.65353 0.0013,-0.47288 2.861355,-3.02856 2.868785,-3.52456 0.01477,-0.98577 -1.350221,0.24594 -1.341777,0.64576 -0.0019,-0.0922 2.813514,-2.70864 2.808203,-3.30115 -0.005,-0.55505 -0.900681,0.0332 -1.802217,0.77634 -0.901259,0.74295 -1.83309,1.65785 -1.832287,1.75504 -0.0024,-0.29155 2.868021,-3.0026 2.871001,-3.76822 0.0057,-1.47474 -1.966166,0.81925 -1.959382,1.10528 -9.61e-4,-0.0405 2.843979,-2.84378 2.839072,-3.26819 -0.01116,-0.96578 -2.83685,1.88103 -2.825135,2.36301 -7.66e-4,-0.0315 2.851966,-2.88861 2.848354,-3.1859 -0.0052,-0.42485 -1.081997,0.48265 -2.186949,1.52973 -1.101109,1.04343 -2.257175,2.24762 -2.257565,2.39796 5.42e-4,-0.20903 2.942096,-3.12802 2.947181,-3.47293 0.01626,-1.10277 -1.592908,0.93947 -1.589653,1.09536 -0.0037,-0.1757 2.885607,-3.15904 2.877526,-4.0848 -0.01312,-1.50276 -3.097415,1.80821 -3.086632,2.41343 0.001,0.0582 2.91679,-3.03929 2.912886,-3.72874 -0.0037,-0.64542 -0.960731,0.1051 -1.931318,1.00568 -0.974808,0.9045 -1.985344,1.97081 -1.985346,1.97654 1.28e-4,-0.55337 2.997474,-3.82988 3.004566,-4.4025 0.01481,-1.19559 -2.700374,1.87242 -2.696775,2.50758 3.05e-4,0.0538 2.998773,-3.30014 3.005042,-4.2664 0.01043,-1.60763 -2.698257,1.57491 -2.69033,2.23347 6.9e-4,0.0573 3.25042,-3.65676 2.681025,-3.66375 -1.02244,-0.0126 -2.781316,2.08703 -2.776426,2.55792 -0.0015,-0.14373 1.955519,-2.46708 1.465916,-2.46708 -1.027727,0 -1.773923,0.89906 -1.773982,0.88521 -0.0028,-0.65309 0.08874,-0.98665 0.08874,-0.98665 0,0 -0.668127,0.6043 -0.676656,1.68351 -0.01358,1.71847 2.192013,-0.8852 1.784741,-0.8852 0.130853,0 -1.494923,1.91361 -1.495902,2.46707 -0.001,0.58039 0.816437,-0.0506 1.574609,-0.8391 0.754661,-0.78488 1.431998,-1.71637 1.232907,-1.71882 0.134494,0.002 -2.725516,3.3219 -2.725556,3.66376 -1.11e-4,0.94212 2.715562,-2.13076 2.717477,-2.23347 -0.01004,0.53867 -3.054733,3.93257 -3.056898,4.26639 -0.0059,0.91522 2.715826,-2.04189 2.727254,-2.50757 -0.0039,0.15729 -3.04656,3.47258 -3.058077,4.40249 -0.0092,0.74193 0.99486,0.0822 1.995878,-0.81816 1.000696,-0.90007 1.956027,-2.009 1.957033,-2.16406 -0.0019,0.29375 -2.959942,3.42232 -2.958207,3.72874 0.0048,0.85341 3.115843,-2.37751 3.115966,-2.41342 -0.0019,0.54109 -2.931791,3.556 -2.927175,4.08479 0.0099,1.1315 1.589113,-0.58034 1.602967,-1.09536 7.61e-4,-0.0283 -2.981196,2.91696 -2.989393,3.47294 -0.0079,0.53477 1.14314,-0.28588 2.276181,-1.32858 1.136283,-1.04569 2.216071,-2.28388 2.216072,-2.59912 1e-6,-0.0687 -2.89162,2.81207 -2.887078,3.18591 0.01078,0.88732 2.853573,-1.88515 2.853858,-2.36302 -3.8e-5,0.0635 -2.883166,2.89027 -2.878797,3.2682 0.01022,0.88408 1.970941,-0.9884 1.972817,-1.10529 -0.0066,0.41262 -2.914392,3.1488 -2.916803,3.76822 -0.0027,0.68606 3.662602,-1.84532 3.665272,-2.53138 -8.01e-4,0.25108 -2.852024,2.88881 -2.848327,3.30116 0.0081,0.90842 1.340835,-0.32178 1.349626,-0.64577 -0.0044,0.16168 -2.899854,2.73883 -2.911624,3.52456 -0.0094,0.6244 1.017386,0.0571 2.042007,-0.69944 1.024289,-0.75626 2.017415,-1.6838 2.018221,-1.77859 -0.0026,0.30095 -2.826667,2.76768 -2.825069,3.20458 0.0033,0.89371 2.717061,-1.43199 2.71928,-1.65589 -0.0025,0.24999 -2.813034,2.65088 -2.812306,2.97536 0.0017,0.77307 2.456793,-1.28855 2.461853,-1.62625 -0.0019,0.12861 -2.811143,2.48788 -2.812745,3.05394 -0.0029,1.00735 3.962258,-2.27255 3.961437,-2.63943 2.01e-4,0.0898 -2.873296,2.48697 -2.519745,2.62499 0.717354,0.28004 0.72712,0.27237 0.728521,0.213 -0.0092,0.38847 -1.214469,1.35866 -0.910501,1.35866 0.842092,0 2.658309,-1.46804 2.657853,-1.76687 2.17e-4,0.14219 -0.225187,0.32639 0.191667,0.32639 0.956089,0 -0.299241,0.43703 -0.299241,0.43703 z"
         id="path7116"
         style="fill:#e6eaef;fill-opacity:1" />
      <path
         d="m 108.35922,132.09602 c 0,0 -3.30191,2.18479 -2.94572,2.08532 -0.43185,0.1206 3.01312,-2.78298 3.2282,-3.61343 0.18717,-0.72269 -1.19756,0.21728 -2.64776,1.32282 -1.45631,1.11019 -3.00861,2.39993 -3.0046,2.40009 -0.25289,-0.01 1.57542,-1.63194 3.37951,-3.31823 1.81309,-1.69471 3.57791,-3.42846 3.5659,-3.70385 -0.0219,-0.5033 -2.10969,1.1567 -4.27808,2.9468 -2.16819,1.78994 -4.43371,3.70948 -4.37597,3.72442 -0.29495,-0.0763 2.45657,-2.40395 1.60405,-2.35509 -1.38943,0.0796 -4.760405,2.89197 -4.422429,3.05875 0.006,0.003 3.714019,-3.11694 3.043429,-3.30041 -1.05549,-0.28878 -3.147109,1.45872 -3.021538,1.55539 -0.164162,-0.12638 0.581943,-0.75872 0.158868,-1.14684 -0.682991,-0.62656 -1.549507,0.11601 -1.520543,0.15207 -0.190184,-0.23675 1.907399,-2.05978 1.808856,-2.27886 -0.251535,-0.55921 -2.573781,1.47609 -2.540279,1.53245 -0.149121,-0.25086 2.066593,-2.19858 1.987168,-2.56174 -0.193732,-0.88581 -2.809615,1.74621 -2.804802,1.75785 -0.08873,-0.21442 2.693298,-2.6975 2.040606,-2.64735 -1.22486,0.0941 -3.099062,1.7619 -3.051054,1.94692 -0.05197,-0.20029 1.343157,-1.44675 0.781135,-1.3229 -1.27312,0.28055 -1.180497,0.83666 -1.180497,0.83666 0,0 1.029602,-0.27773 0.402107,-0.1398 0.08713,-0.0191 -0.909735,0.86494 -0.796071,1.3229 0.209593,0.84448 3.400394,-1.97205 3.073035,-1.94692 0.261012,-0.02 -2.2495,2.20267 -2.070495,2.64735 0.359036,0.89191 2.867615,-1.5507 2.824648,-1.75785 0.01956,0.0943 -2.281815,2.10607 -2.016091,2.56175 0.501683,0.86031 2.667378,-1.28208 2.557581,-1.53246 -0.0034,-0.008 -2.166141,1.86024 -1.834585,2.27886 0.547623,0.69143 1.532275,-0.14278 1.52226,-0.15207 0.24721,0.22916 -0.520491,0.87605 -0.171817,1.14685 0.627584,0.48742 3.049258,-1.55261 3.039098,-1.5554 0.39705,0.10897 -3.297827,3.19267 -3.080691,3.30042 0.551824,0.27383 4.565501,-3.06497 4.456971,-3.05876 0.46843,-0.0268 -2.197539,2.20793 -1.63065,2.35509 0.48805,0.1267 2.76055,-1.47752 4.82362,-3.1452 2.06308,-1.66769 3.90986,-3.39885 3.90575,-3.52601 0.004,0.10932 -1.86955,1.85653 -3.73323,3.58057 -1.86367,1.72403 -3.71544,3.42489 -3.29146,3.4415 1.43172,0.0561 5.6468,-3.54681 5.6944,-3.72291 -0.11534,0.42674 -4.24489,3.88511 -3.269,3.61343 1.81757,-0.506 3.79017,-2.78218 3.79017,-2.78218 z m 0.90879,-5.64899 c 0,0 -3.13466,2.19622 -3.15546,2.30932 0.086,-0.46762 2.42164,-2.60501 2.32925,-2.84446 -0.23481,-0.60853 -1.63503,0.69382 -1.63312,0.70444 -0.0748,-0.41518 1.40944,-1.80832 1.13652,-2.18978 -0.49124,-0.68659 -2.71162,1.41639 -2.70273,1.42765 -0.21955,-0.27783 2.57379,-2.95022 2.12506,-3.32079 -0.85736,-0.70802 -3.2297,2.04383 -3.05048,2.16136 0.007,0.005 1.78149,-1.70276 1.30009,-2.01336 -0.86547,-0.5584 -2.88182,1.61209 -2.68755,1.70616 -0.0835,-0.0404 2.20209,-2.26159 1.74277,-2.49343 -0.90294,-0.45575 -2.74243,1.62945 -2.63856,1.67256 -0.30895,-0.12824 1.40748,-1.81081 1.09852,-1.93906 -0.83145,-0.34334 -3.00903,1.80219 -2.67876,1.93971 -0.0459,-0.0191 2.4314,-2.46149 1.82983,-2.70814 -0.89898,-0.36859 -3.007572,1.5167 -2.857299,1.59454 -0.269801,-0.13976 1.209509,-1.61595 0.724189,-1.85433 -0.810391,-0.39803 -2.524167,1.22694 -2.385986,1.3282 -0.196485,-0.14399 1.907908,-2.27264 1.494996,-2.68524 -0.638359,-0.63788 -1.856582,0.4291 -1.573488,0.72905 -0.02733,-0.029 0.810808,-0.89054 0.644979,-1.569 -0.275601,-1.12757 -1.618612,0.28187 -1.437681,0.5798 -0.02032,-0.0335 1.989972,-2.38418 1.989972,-2.38418 0,0 -2.8155,2.82487 -2.66282,3.08105 0.373723,0.62704 1.459156,-0.51577 1.444228,-0.57981 0.08818,0.37823 -0.863963,1.35317 -0.662694,1.56901 0.462664,0.49615 1.625115,-0.6852 1.58172,-0.72906 0.227594,0.23002 -1.924831,2.39002 -1.525314,2.68525 0.679309,0.50198 2.559903,-1.24971 2.400978,-1.3282 0.242287,0.11967 -1.247005,1.59282 -0.745122,1.85432 0.852375,0.44414 2.911452,-1.57964 2.875302,-1.59453 0.34482,0.14203 -2.155646,2.58461 -1.860401,2.70813 0.669621,0.28015 2.883151,-1.86399 2.700661,-1.9397 0.30622,0.12704 -1.42664,1.81201 -1.12042,1.93906 0.89263,0.37228 2.70832,-1.64674 2.65745,-1.67256 0.22021,0.11179 -2.09069,2.33774 -1.77093,2.49342 0.75186,0.36605 2.70824,-1.70524 2.70682,-1.70616 0.26309,0.171 -1.52638,1.87888 -1.32282,2.01337 0.51959,0.34326 3.11317,-2.12945 3.07488,-2.16136 0.25141,0.20957 -2.5291,2.85023 -2.16255,3.32078 0.59173,0.75964 2.80834,-1.30055 2.71884,-1.42764 0.12537,0.17803 -1.27932,1.49073 -1.16124,2.18977 0.18992,1.12429 1.782,-0.3282 1.64107,-0.70444 -0.002,-0.007 -2.1951,1.99287 -2.36136,2.84447 -0.13832,0.70843 0.86471,-0.0324 1.89383,-0.96776 1.02567,-0.93221 2.04483,-2.03843 2.04483,-2.03843 z m -0.54658,-11.72394 c 0,0 -1.67533,1.06758 -1.58261,1.01894 -0.92962,0.48771 1.40764,-2.12659 1.03281,-2.58381 -0.63659,-0.77652 -2.77765,1.67114 -2.69075,1.77132 -0.17807,-0.20529 1.90738,-2.59753 1.48994,-2.93161 -0.7382,-0.5908 -2.80822,1.82216 -2.74171,1.84459 -0.34883,-0.11764 0.91301,-1.57996 0.61825,-1.72087 -0.67755,-0.32391 -2.08211,1.31449 -1.99224,1.31024 -0.47134,0.0223 1.35264,-2.11596 0.98997,-2.19894 -0.75417,-0.17256 -3.09022,3.29567 -3.09022,3.29567 0,0 2.92714,-2.50194 2.50487,-2.59881 0.0613,0.0141 -1.86074,2.23892 -1.01481,2.19894 1.41363,-0.0668 2.34906,-1.14584 2.00705,-1.31023 0.0393,0.0189 -1.26102,1.50984 -0.63769,1.72087 1.07431,0.36369 2.86304,-1.76343 2.76254,-1.8446 0.20176,0.16295 -1.87313,2.52267 -1.52305,2.93161 0.6116,0.71443 2.77135,-1.69637 2.71076,-1.77131 0.19756,0.24435 -2.68587,3.43073 -1.06198,2.5838 2.64979,-1.38199 2.21887,-1.7158 2.21887,-1.7158 z m -5.97559,-3.87585 c 0,0 -1.69111,1.82821 -3.478004,3.72228 -1.775286,1.88178 -3.660343,3.84895 -3.586674,4.0758 0.0082,0.0253 1.877502,-1.91539 3.505154,-3.85562 1.627654,-1.94022 3.013744,-3.87994 2.546814,-3.85257 -0.74974,0.0439 -2.294245,1.47626 -3.713912,2.96589 -1.412525,1.48215 -2.719183,3.04409 -2.710007,3.30979 -1.87e-4,-0.005 1.501402,-1.62236 2.765601,-3.18481 1.262916,-1.56086 2.301458,-3.07198 1.68427,-2.85779 -1.918366,0.66576 -4.36217,4.23082 -4.36217,4.23082 0,0 3.8142,-3.54663 3.777524,-3.53395 0.361679,-0.12503 -0.700872,1.29005 -1.920056,2.78417 -1.211698,1.48495 -2.602268,3.07646 -2.598039,3.25843 0.01093,0.47008 1.73017,-1.09964 3.355572,-2.78573 1.625723,-1.68642 3.143627,-3.49022 3.139207,-3.48996 0.27857,-0.0163 -1.159531,1.85329 -2.771943,3.75569 -1.612413,1.90241 -3.403072,3.83761 -3.367059,3.95251 0.103578,0.33044 2.199224,-1.80372 4.105773,-4.00355 1.917049,-2.21195 3.627949,-4.4914 3.627949,-4.4914 z"
         id="path7118"
         style="fill:#e6eaef;fill-opacity:1" />
      <path
         d="m 120.76788,135.24696 c 0,0 -0.38279,0.45524 -0.37843,-0.15176 0.008,-1.04514 0.1876,-1.2011 0.44687,-1.2011 -0.27886,0 -0.57874,0.24966 -0.57263,-0.4145 0.0102,-1.11336 -2.97939,1.35004 -2.96865,1.39703 -0.0735,-0.32156 4.36642,-4.04154 4.36245,-4.38815 -0.009,-0.80796 -3.2882,2.00115 -3.28438,2.24239 -0.003,-0.20352 1.63196,-1.58678 1.64251,-2.37101 0.014,-1.04027 -0.9268,-0.66067 -0.91716,-0.30695 -0.009,-0.32069 2.03192,-2.13117 2.02981,-2.70881 -0.004,-1.06515 -3.16057,1.77971 -3.15749,2.07359 -0.002,-0.17534 3.86026,-3.67638 3.85373,-4.10891 -0.007,-0.46728 -0.91681,0.15713 -1.83616,0.90229 -0.9216,0.74699 -1.86575,1.62022 -1.86523,1.65972 -0.005,-0.40041 2.67268,-2.87859 2.67325,-3.22254 0.001,-0.85573 -2.92288,1.89261 -2.9192,2.28253 -9.3e-4,-0.0982 3.07516,-2.98275 3.07484,-3.32462 -8.1e-4,-0.86133 -3.08678,2.08549 -3.08247,2.54251 -3.5e-4,-0.0372 2.86678,-2.7531 2.86807,-3.22805 0.003,-1.00236 -1.9105,0.86171 -1.90638,1.02249 -0.009,-0.34381 1.91022,-2.22628 1.91179,-2.80235 0.003,-1.12004 -2.22201,1.113 -2.21535,1.42803 -0.004,-0.2034 3.11373,-3.36327 3.10522,-3.99567 -0.008,-0.59995 -0.8576,0.004 -1.71072,0.79115 -0.85266,0.78719 -1.73911,1.7817 -1.73629,1.96169 -0.003,-0.16418 3.19672,-3.47798 3.18874,-4.36783 -0.0132,-1.46973 -2.63884,1.36953 -2.63875,1.37303 -0.0145,-0.55054 2.15987,-3.13896 2.15987,-3.13896 0,0 -2.83436,2.91486 -2.82122,3.83582 0.0211,1.47682 2.6552,-1.29638 2.65544,-1.37302 -0.002,0.50325 -3.24366,3.84876 -3.24183,4.36783 0.002,0.52289 0.88712,-0.0844 1.76281,-0.86919 0.87656,-0.78557 1.71786,-1.72946 1.71766,-1.88366 3.4e-4,0.25895 -3.15871,3.44666 -3.15379,3.99568 0.01,1.06745 2.22779,-1.09749 2.23271,-1.42804 -0.003,0.21343 -1.955,2.12214 -1.94585,2.80236 0.0182,1.35376 1.91531,-0.78736 1.9188,-1.02249 -0.002,0.12333 -2.9063,2.8613 -2.90729,3.22804 -0.002,0.861 3.10749,-2.01858 3.11336,-2.5425 5e-5,-0.004 -3.1141,2.90097 -3.11525,3.32461 -0.002,0.91179 2.93992,-1.77352 2.94695,-2.28253 -4e-5,0.003 -2.7131,2.50252 -2.71242,3.22255 0.001,1.19944 3.7337,-2.16392 3.73253,-2.56201 2.9e-4,0.10027 -3.90286,3.62074 -3.90367,4.10891 -0.002,0.95739 3.1807,-1.83871 3.18269,-2.07359 -0.002,0.25263 -2.07219,2.08271 -2.06274,2.7088 0.0164,1.0842 0.91336,0.30993 0.91343,0.30695 -0.012,0.46935 -1.67315,1.87099 -1.67133,2.37101 0.003,0.94479 3.31134,-1.82011 3.31164,-2.24239 -2e-5,0.0391 -4.53853,3.82088 -4.41579,4.38816 0.20249,0.93583 2.98383,-1.31254 2.98564,-1.39704 -0.008,0.3647 -0.07,0.41451 0.56758,0.41451 1.17574,0 -0.46384,1.32436 -0.46146,1.20109 -0.006,0.31483 1.24354,-0.5451 1.24354,-0.5451 z m 5.6177,-20.5536 c 0,0 -0.62693,-0.10301 -0.29999,-0.10301 -0.21113,0 0.47783,-0.78607 0.47531,-1.49648 -0.005,-1.33968 -1.72718,0.67818 -1.35503,0.67818 -0.16598,0 1.95956,-2.52421 1.48156,-2.9525 -0.39532,-0.35419 -1.29963,0.34605 -2.12427,1.13321 -0.82517,0.78766 -1.57711,1.66375 -1.57541,1.66375 -0.67523,0 0.78403,-1.72555 0.1088,-1.72555 -0.67692,0 -1.97439,1.15526 -3.14884,2.3395 -1.17446,1.18425 -2.22818,2.39747 -2.22722,2.51338 -0.001,-0.17542 1.20954,-1.59321 2.24315,-2.96715 1.03361,-1.37394 1.89378,-2.70403 1.44453,-2.70403 -1.43663,0 -3.79892,2.80941 -3.71242,2.84668 -0.30539,-0.13158 2.10201,-3.00222 1.21103,-3.00222 -0.80725,0 -4.10033,2.4965 -3.29308,2.4965 0.18096,0 0.79395,-1.88785 0.613,-1.88785 -0.69578,0 -3.83413,2.57089 -3.13835,2.57089 0.30952,0 1.71871,-3.06457 1.40918,-3.06457 -1.40652,0 -1.92922,0.64067 -1.91882,1.27008 -1e-5,-4.7e-4 1.30798,-1.58793 0.59261,-1.58793 -1.24712,0 -1.39429,1.04766 -1.39429,1.04766 0,0 1.00773,-0.3508 0.82552,-0.3508 0.35662,0 -0.61374,1.16754 -0.61191,1.58794 0.005,1.05028 1.96273,-1.27009 1.93426,-1.27009 0.58617,0 -2.03261,3.06458 -1.44643,3.06458 0.73922,0 3.90882,-2.57089 3.16959,-2.57089 -0.17779,0 -0.81373,1.88785 -0.63594,1.88785 0.62775,0 3.95118,-2.49651 3.32343,-2.49651 0.53222,0 -1.81121,2.75807 -1.24752,3.00222 0.95353,0.413 3.74539,-2.84667 3.74701,-2.84667 0.26988,0 -0.61465,1.23297 -1.61908,2.55835 -0.99705,1.31566 -2.13613,2.75291 -2.13753,3.11283 -0.003,0.65695 1.43771,-0.5482 2.81621,-1.9307 1.37448,-1.37847 2.65942,-2.92218 2.61884,-2.92218 0.67522,0 -0.805,1.72554 -0.12978,1.72554 1.43161,0 3.7744,-2.76006 3.73368,-2.79695 0.26739,0.24221 -2.04217,2.95249 -1.51745,2.95249 1.06285,0 1.36037,-0.33979 1.36328,-0.67818 -0.003,0.2909 -1.06338,1.49648 -0.4935,1.49648 1.11005,0 0.91587,-0.59385 0.91587,-0.59385 z"
         id="path7120"
         style="fill:#e6eaef;fill-opacity:1" />
      <path
         d="m 145.99194,134.29052 c 0,0 4.01216,-3.24357 4.80758,-4.51021 0.75257,-1.19839 -1.01067,0.11723 -2.92586,1.65632 -1.94166,1.56034 -4.14187,3.40793 -4.02692,3.37979 -0.26823,0.0657 1.98298,-1.85782 4.204,-3.88641 2.24025,-2.04615 4.39426,-4.14472 4.49473,-4.517 0.18503,-0.68561 -2.58601,1.648 -5.56434,4.15404 -2.97695,2.50488 -6.1894,5.17872 -6.02873,5.16778 -0.13303,0.009 2.91626,-2.51465 5.79838,-5.08829 2.88211,-2.57364 5.58901,-5.19722 5.61435,-5.38791 0.0631,-0.47496 -2.65777,1.89403 -5.54394,4.39973 -2.87988,2.50023 -5.93312,5.12076 -5.67775,5.12153 -0.0127,-4e-5 2.84213,-2.34979 5.52683,-4.80291 2.70587,-2.47246 5.18334,-4.99027 5.20305,-5.42312 0.0309,-0.67955 -2.8678,1.78274 -5.98575,4.42275 -3.11581,2.6382 -6.47973,5.44868 -6.42975,5.45645 -0.17647,-0.0274 3.49515,-3.14706 6.89114,-6.30779 3.39598,-3.16073 6.5082,-6.36256 6.48564,-6.55438 -0.0493,-0.41959 -3.504,2.80277 -7.29839,6.18066 -3.78021,3.36526 -7.90048,6.84818 -7.75098,6.8866 -0.0556,-0.0143 4.12415,-3.48746 7.92025,-6.9932 3.79609,-3.50575 7.20127,-7.04406 7.17269,-7.18864 -0.0705,-0.3566 -3.69966,3.1191 -7.72886,6.74566 -4.01172,3.61083 -8.417,7.32528 -8.28833,7.36745 -0.0639,-0.0209 4.21664,-3.58706 8.08953,-7.19283 3.87289,-3.60577 7.32913,-7.25117 7.27944,-7.43065 -0.10483,-0.37867 -3.8383,3.20706 -8.00909,6.94361 -4.15327,3.72087 -8.73949,7.54551 -8.69139,7.56624 -0.12873,-0.0555 4.40813,-3.88528 8.48935,-7.73974 4.08123,-3.85447 7.70083,-7.73357 7.63858,-7.8876 -0.14213,-0.35167 -3.72426,3.16722 -7.64792,6.7962 -3.92365,3.62899 -8.2157,7.36808 -8.04225,7.45681 0.006,0.003 4.25375,-3.56312 8.05002,-7.20504 3.79628,-3.64192 7.12406,-7.35951 6.97363,-7.65907 -0.23787,-0.4737 -3.89595,3.03593 -7.94234,6.70177 -4.03369,3.65433 -8.46683,7.43036 -8.46447,7.43193 -0.14845,-0.0989 4.54447,-4.2054 8.70989,-8.32058 4.16542,-4.11518 7.80109,-8.2391 7.70389,-8.37298 -0.21692,-0.29877 -4.02554,3.6637 -8.29211,7.713 -4.26657,4.0493 -9.01461,8.18542 -8.95277,8.23395 -0.0788,-0.0618 4.65328,-4.19145 8.8041,-8.36348 4.15082,-4.17203 7.70935,-8.38646 7.50089,-8.61782 -0.34389,-0.38167 -4.12711,3.52269 -8.33988,7.52412 -4.21276,4.00143 -8.88147,8.09993 -8.87479,8.10655 -0.11955,-0.1184 4.51864,-4.29549 8.57091,-8.49185 4.05228,-4.19636 7.5136,-8.41201 7.28117,-8.60753 -0.38816,-0.32652 -4.27437,3.81137 -8.61221,8.06556 -4.33784,4.25418 -9.16012,8.62466 -9.05031,8.7633 -6e-4,-7.5e-4 4.9767,-4.37343 9.30722,-8.76546 4.33052,-4.39202 8.00879,-8.80339 7.90204,-8.88152 -0.27247,-0.19945 -3.95378,3.88332 -8.10284,8.04032 -4.14905,4.15701 -8.78612,8.38824 -8.71549,8.48573 -0.0351,-0.0484 4.42057,-4.06757 8.28843,-8.1196 3.86786,-4.05203 7.13954,-8.13692 6.83622,-8.31675 -0.48199,-0.28576 -4.13145,3.59234 -8.15839,7.55544 -4.02694,3.9631 -8.45385,8.01121 -8.42565,8.06546 -0.0578,-0.11117 4.51479,-4.33189 8.48048,-8.54563 3.9657,-4.21374 7.32637,-8.4205 7.12183,-8.50374 -0.40567,-0.16509 -4.11422,3.99227 -8.29122,8.19571 -4.177,4.20343 -8.83523,8.45293 -8.82831,8.47212 -0.0595,-0.16497 4.35559,-4.29768 8.14547,-8.41027 3.78988,-4.11259 6.9598,-8.20505 6.57059,-8.28952 -0.61721,-0.13395 -3.68066,3.13266 -6.93446,6.47108 -3.25379,3.33842 -6.71343,6.74866 -6.68027,6.90196 -0.0129,-0.0598 3.26736,-3.2336 6.17956,-6.39712 2.9122,-3.16351 5.45841,-6.3167 5.26797,-6.33512 -0.43929,-0.0425 -3.26648,3.04712 -6.28695,6.20652 -3.02046,3.15939 -6.24805,6.38856 -6.21466,6.62516 0.001,0.0104 3.77642,-3.58434 7.09645,-7.18339 3.32003,-3.59904 6.18413,-7.20241 6.04532,-7.20933 -0.39738,-0.0198 -3.48206,3.51895 -6.86812,7.12653 -3.38606,3.60757 -7.08908,7.28397 -7.06403,7.53942 0.002,0.0216 3.64919,-3.42988 6.85462,-6.88712 3.20543,-3.45723 5.96794,-6.9202 5.75433,-6.92153 -0.48128,-0.003 -3.11005,2.88163 -5.88359,5.83368 -2.77355,2.95205 -5.70421,5.97153 -5.68606,6.2383 0.001,0.0205 2.9262,-2.82255 5.54554,-5.669 2.61935,-2.84645 4.93259,-5.69631 4.76485,-5.6895 -0.44629,0.0181 -2.71423,2.46287 -5.06087,4.96674 -2.32871,2.48475 -4.78029,5.08598 -4.77104,5.3214 -1e-4,-0.003 2.85266,-2.83757 5.32314,-5.65483 2.47048,-2.81726 4.56196,-5.61681 4.07518,-5.54854 -0.79106,0.11094 -3.23097,2.63721 -5.67805,5.15142 -2.44708,2.5142 -4.89943,5.01635 -4.90973,5.07906 0.0431,-0.2626 2.47053,-2.83709 4.57496,-5.30028 2.10443,-2.46319 3.90337,-4.81507 3.46684,-4.63246 -1.54452,0.6461 -5.78431,5.39298 -6.02363,5.99158 0.14288,-0.35738 3.30476,-3.89711 2.52556,-3.34703 -2.17081,1.53246 -3.31747,3.54601 -3.31747,3.54601 0,0 1.09786,-0.98903 1.96626,-1.83715 0.87744,-0.85694 1.51412,-1.55496 0.73886,-1.012 -0.11946,0.0837 -2.14777,2.33602 -2.56339,3.34704 -0.41578,1.0114 1.3107,-0.50431 3.02748,-2.30286 1.70027,-1.78127 3.31555,-3.79351 3.06387,-3.68873 0.1625,-0.0677 -1.66496,2.1758 -3.71825,4.55603 -2.02739,2.35022 -4.35694,4.92725 -4.43583,5.37672 -0.14124,0.80474 2.79403,-1.75422 5.52063,-4.51379 2.72656,-2.75954 5.2032,-5.71955 5.18281,-5.7167 0.28437,-0.0398 -1.85649,2.67402 -4.3077,5.44131 -2.45121,2.76729 -5.22215,5.58805 -5.21728,5.76207 0.0123,0.43973 2.89227,-2.15547 5.44722,-4.82973 2.56315,-2.68284 4.79767,-5.47045 4.501,-5.45842 -0.018,7.3e-4 -2.3818,2.7685 -4.98746,5.57202 -2.60565,2.80351 -5.45949,5.64277 -5.45133,5.78648 0.0229,0.4038 3.39624,-2.64109 6.36739,-5.74241 2.98439,-3.11513 5.57125,-6.32812 5.33873,-6.32956 0.0351,2.1e-4 -2.7885,3.38525 -5.98964,6.80379 -3.20114,3.41854 -6.78707,6.87059 -6.77541,7.00485 0.0319,0.36808 4.16332,-3.29112 7.7589,-7.04599 3.59559,-3.75486 6.63098,-7.60539 6.33903,-7.61996 -0.0335,-0.002 -2.96298,3.52629 -6.28325,7.08978 -3.32028,3.56349 -7.03945,7.1625 -7.02122,7.30295 0.0496,0.38174 3.69064,-2.84546 6.88719,-6.12456 3.21124,-3.29417 5.98352,-6.68543 5.75948,-6.70712 0.0245,0.002 -2.58376,3.08454 -5.49565,6.21655 -2.91189,3.13202 -6.13719,6.31389 -6.09582,6.51568 0.0881,0.42957 3.92624,-2.94415 7.33564,-6.37688 3.42405,-3.44747 6.4211,-6.99815 6.43027,-6.99615 0.23662,0.0515 -3.01279,4.08255 -6.81952,8.17269 -3.80673,4.09014 -8.1858,8.23935 -8.08532,8.52709 0.17189,0.49228 5.17243,-3.68884 9.47964,-7.94011 4.32784,-4.27164 7.95835,-8.67455 7.82831,-8.72772 0.0701,0.0287 -3.37479,4.1803 -7.36606,8.38011 -3.99126,4.19981 -8.5416,8.44782 -8.42899,8.66926 0.19674,0.38686 4.90881,-3.52 9.05494,-7.52276 4.14613,-4.00276 7.70019,-8.10142 7.70569,-8.09813 0.18298,0.10921 -3.17483,4.14547 -7.07358,8.19084 -3.89875,4.04537 -8.34074,8.09985 -8.23688,8.2455 0.2079,0.29154 5.10589,-3.77795 9.3544,-7.95134 4.2485,-4.17339 7.81882,-8.45067 7.65076,-8.57471 -0.004,-0.003 -3.7725,4.36217 -8.14035,8.75118 -4.36785,4.38901 -9.34155,8.80212 -9.2684,8.89581 0.18198,0.23308 5.24958,-3.96273 9.67852,-8.22252 4.42893,-4.25978 8.20109,-8.58353 8.17424,-8.60634 0.12739,0.10819 -3.42559,4.28216 -7.5176,8.47951 -4.09201,4.19736 -8.7292,8.41811 -8.52779,8.61986 0.32623,0.32677 5.20091,-3.57131 9.47727,-7.55588 4.27635,-3.98456 7.93116,-8.05561 7.91411,-8.07478 0.11668,0.13115 -3.5359,4.30879 -7.73197,8.48749 -4.19608,4.17869 -8.93594,8.35844 -8.765,8.4938 0.31028,0.24571 5.23571,-3.67056 9.54599,-7.68349 4.31027,-4.01293 7.9799,-8.12252 7.87917,-8.26346 0.0171,0.024 -3.71367,4.11437 -7.92803,8.24028 -4.21436,4.12591 -8.92157,8.28732 -8.67446,8.45328 0.39676,0.26647 4.96343,-3.26204 9.01126,-6.85963 4.04784,-3.59758 7.56014,-7.26425 7.55532,-7.27407 0.0863,0.17581 -3.33511,3.86487 -7.18257,7.52346 -3.84745,3.65859 -8.11394,7.28671 -8.00911,7.34065 0.2712,0.13954 4.67233,-3.33602 8.5891,-6.89031 3.91676,-3.55429 7.33109,-7.18731 7.2622,-7.36269 0.009,0.0223 -3.70845,3.87597 -7.84684,7.75068 -4.13839,3.8747 -8.70317,7.7704 -8.45776,7.87665 0.42138,0.18243 5.08257,-3.3557 9.21052,-6.9841 4.12796,-3.62841 7.70143,-7.34709 7.65399,-7.52574 0.01,0.0362 -3.5453,3.66059 -7.47877,7.29165 -3.93347,3.63106 -8.24703,7.26882 -8.05551,7.33183 0.38335,0.12611 4.83833,-3.28465 8.80268,-6.7857 3.96435,-3.50106 7.41786,-7.09239 7.37405,-7.32742 -0.001,-0.007 -3.50719,3.51349 -7.36731,7.04841 -3.86011,3.53492 -8.07774,7.08401 -7.88595,7.13343 0.39629,0.10213 4.53996,-3.06027 8.24973,-6.30041 3.70977,-3.24014 6.96956,-6.55801 6.94736,-6.76684 0.003,0.0316 -3.21186,3.22165 -6.67472,6.41658 -3.46285,3.19493 -7.17433,6.39469 -6.84745,6.44558 0.55293,0.0861 3.88362,-2.36725 6.87792,-4.85035 2.9943,-2.4831 5.64738,-4.99594 5.64925,-5.02885 -0.0134,0.23495 -2.62102,2.79117 -5.37917,5.28879 -2.75814,2.49763 -5.65772,4.93667 -5.46631,4.93725 0.45947,0.001 3.43475,-2.23281 6.14425,-4.54041 2.72861,-2.32388 5.14059,-4.67235 5.18507,-4.98085 3.6e-4,-0.002 -2.82262,2.62776 -5.78798,5.25303 -2.96536,2.62527 -6.07225,5.24556 -5.74318,5.22316 0.623,-0.0424 3.68074,-2.27351 6.437,-4.5437 2.75626,-2.27019 5.20559,-4.57945 5.26145,-4.77812 -0.0375,0.13337 -2.35365,2.29832 -4.67622,4.39789 -2.32256,2.09956 -4.64263,4.13373 -4.1175,4.00553 1.93667,-0.4728 6.68645,-4.53046 7.00971,-5.03611 -0.3566,0.5578 -4.01281,3.81334 -4.01281,3.81334 z m -2.62877,-2.54882 c 0,0 1.3228,-0.98927 2.63452,-2.06594 1.33007,-1.09174 2.60142,-2.23253 2.81125,-2.60681 0.46972,-0.83784 -0.96964,0.23598 -2.4639,1.44359 -1.51569,1.22492 -3.17699,2.63557 -2.831,2.55796 -0.0301,0.007 1.33627,-1.07584 2.67329,-2.26514 1.35259,-1.20314 2.62748,-2.47147 2.76423,-2.90544 0.24222,-0.76873 -1.52874,0.5888 -3.45303,2.10604 -1.93697,1.52724 -4.10019,3.2442 -4.07108,3.24434 -0.23831,-0.001 1.95695,-1.81411 4.01354,-3.72478 2.08147,-1.93377 3.95359,-3.8959 3.96003,-4.31095 0.0102,-0.65944 -2.27632,1.2855 -4.8067,3.39432 -2.53231,2.11042 -5.36266,4.38952 -5.29577,4.40638 -0.13706,-0.0345 2.70162,-2.34446 5.23436,-4.73086 2.56171,-2.41369 4.74424,-4.822 4.67251,-5.18979 -0.11028,-0.56544 -2.8905,2.0274 -6.08849,4.79874 -3.18928,2.76381 -6.83826,5.68347 -6.73087,5.73394 -0.0603,-0.0283 3.23687,-2.6281 6.10844,-5.30006 2.90235,-2.70059 5.30599,-5.38749 5.17782,-5.7333 -0.19131,-0.51622 -2.67239,1.77974 -5.47195,4.22235 -2.79362,2.43742 -5.93915,5.00594 -5.93487,5.00894 -0.14039,-0.0981 3.28136,-2.99242 6.21236,-5.89291 2.93099,-2.90049 5.36912,-5.80717 5.28607,-5.93003 -0.19098,-0.28251 -2.8501,2.53348 -5.98362,5.48297 -3.11794,2.93482 -6.72254,5.95912 -6.65196,6.01984 -0.0607,-0.0522 3.46519,-2.99522 6.45773,-5.95122 2.99255,-2.956 5.44719,-5.92498 5.36015,-6.02908 -0.22026,-0.26341 -2.88095,2.63043 -6.00989,5.60283 -3.12893,2.97241 -6.7558,6.02337 -6.70529,6.0742 -0.0708,-0.0712 3.47721,-3.06903 6.45032,-6.09361 2.97312,-3.02457 5.36186,-6.0759 5.17003,-6.25411 -0.33006,-0.30661 -3.02745,2.58515 -6.19629,5.6004 -3.15562,3.00267 -6.80296,6.09112 -6.78585,6.11502 -0.0838,-0.11716 3.39486,-3.13889 6.28656,-6.16699 2.89171,-3.0281 5.19414,-6.06257 4.95854,-6.20521 -0.41598,-0.25184 -2.78226,2.31353 -5.4461,4.98043 -2.66384,2.6669 -5.65908,5.43533 -5.57683,5.58961 -0.004,-0.007 3.29466,-2.91364 6.03377,-5.83751 2.73911,-2.92386 4.91295,-5.86484 4.74407,-5.94014 -0.36885,-0.16448 -2.77075,2.64216 -5.5583,5.53386 -2.78755,2.89169 -5.99088,5.86844 -5.91563,6.04418 0.001,0.003 3.21511,-2.83596 5.84837,-5.70125 2.63326,-2.8653 4.67691,-5.75684 4.33553,-5.85874 -0.55987,-0.16711 -2.85285,2.36729 -5.40871,4.95967 -2.55586,2.59239 -5.39341,5.24277 -5.37839,5.30761 -0.0321,-0.13866 2.7109,-2.75056 4.9499,-5.33264 2.23899,-2.58208 3.98313,-5.13433 3.5638,-5.15367 -0.67919,-0.0313 -2.37874,1.72864 -4.09531,3.55028 -1.69831,1.80226 -3.46168,3.72434 -3.44575,3.92037 -0.003,-0.0339 2.14775,-2.21054 3.92387,-4.36804 1.77611,-2.1575 3.18293,-4.29584 2.83656,-4.25313 -0.64219,0.0792 -2.41957,2.09728 -4.28375,4.11281 -1.86418,2.01554 -3.81455,4.02851 -3.82436,4.09746 0.0323,-0.22697 1.50865,-1.87385 2.72322,-3.3601 1.23351,-1.50944 2.26255,-2.92779 1.9896,-2.81364 -1.26468,0.52894 -3.55097,3.17161 -3.80114,3.92315 0.0223,-0.067 0.88586,-1.08258 1.68273,-2.08141 0.79843,-1.00081 1.52901,-1.98093 1.52901,-1.98093 0,0 -0.83437,1.00119 -1.76423,2.09879 -0.91256,1.07718 -1.96763,2.30501 -2.09353,2.66041 -0.28894,0.8156 0.94952,-0.20877 2.12309,-1.46015 1.14813,-1.22424 2.18208,-2.63715 1.76195,-2.46299 0.004,-0.002 -1.06193,1.31028 -2.25096,2.73842 -1.16952,1.40469 -2.52198,2.99586 -2.59389,3.43531 -0.12692,0.77562 2.32398,-1.27322 4.48531,-3.53219 2.15522,-2.25259 3.94543,-4.69616 3.79838,-4.67808 0.14955,-0.0184 -1.32934,2.03686 -3.10254,4.14673 -1.7732,2.10986 -3.85424,4.27435 -3.84226,4.47444 0.0272,0.4536 2.20639,-1.42216 4.13182,-3.3978 1.92953,-1.97985 3.58274,-4.07221 3.569,-4.07284 0.24586,0.0114 -1.58557,2.49577 -3.84108,5.04592 -2.25552,2.55016 -4.95455,5.16607 -4.89687,5.44038 0.1028,0.48893 3.32196,-2.09673 6.05367,-4.77018 2.74306,-2.68458 4.97562,-5.4903 4.953,-5.49709 0.19448,0.0584 -1.94729,2.89241 -4.61394,5.7398 -2.66666,2.84738 -5.86274,5.70817 -5.81718,5.82018 0.1158,0.28466 3.6605,-2.5732 6.61103,-5.52055 2.95052,-2.94734 5.27333,-5.98419 5.11051,-6.05749 0.0352,0.0159 -2.23921,2.90311 -5.01792,5.81498 -2.77871,2.91187 -6.0703,5.84835 -6.01179,5.96268 0.14818,0.28958 3.44957,-2.36142 6.23483,-5.04887 2.79986,-2.70154 5.07835,-5.48179 5.01414,-5.52117 0.11385,0.0698 -2.29301,3.05727 -5.23242,6.08007 -2.93942,3.02279 -6.42391,6.08093 -6.27727,6.29213 0.25419,0.3661 4.15279,-2.56205 7.4096,-5.55095 3.27188,-3.00274 5.88296,-6.10773 5.82309,-6.16447 0.0889,0.0842 -2.40675,3.09487 -5.43563,6.12261 -3.02888,3.02773 -6.59713,6.07255 -6.44879,6.22511 0.267,0.27459 4.10057,-2.56396 7.31798,-5.51151 3.2174,-2.94755 5.77845,-6.0041 5.64692,-6.16552 -0.002,-0.002 -2.56269,2.92923 -5.61426,5.89296 -3.05157,2.96373 -6.60528,5.95986 -6.45982,6.08734 0.2743,0.24039 4.05616,-2.55146 7.2446,-5.44533 3.18844,-2.89388 5.74675,-5.88978 5.63697,-6.05748 0.004,0.007 -2.54099,2.8796 -5.53478,5.7923 -2.99378,2.91269 -6.44979,5.86511 -6.21649,6.03063 0.38452,0.27282 3.63477,-2.03578 6.44209,-4.39828 2.81467,-2.36868 5.17025,-4.80983 5.16215,-4.83301 0.0632,0.18104 -2.46693,2.89893 -5.40787,5.59178 -2.94093,2.69286 -6.28477,5.36068 -6.11435,5.44159 0.33647,0.15973 4.03626,-2.44995 7.21964,-5.11131 3.18339,-2.66136 5.83313,-5.37439 5.82497,-5.42138 0.0322,0.18551 -2.28288,2.63127 -4.89063,5.04785 -2.60775,2.41658 -5.49996,4.80399 -5.2284,4.87281 0.4744,0.12022 3.27751,-1.80433 5.72839,-3.77174 2.45089,-1.96742 4.53901,-3.9777 4.5409,-4.02896 -0.009,0.23546 -1.99945,2.20177 -4.16377,4.17735 -2.14153,1.95476 -4.39819,3.85637 -3.98165,3.85837 0.68394,0.003 2.66887,-1.2622 4.39678,-2.56457 1.74109,-1.31231 3.18989,-2.63169 3.24175,-2.78581 -0.0697,0.2073 -1.48221,1.50565 -2.94055,2.77834 -1.44357,1.25979 -2.88969,2.45523 -2.60754,2.39224 1.42845,-0.31892 4.89379,-3.16536 5.38047,-4.00155 -0.0314,0.054 -1.13285,1.04793 -2.28539,2.02841 -1.15024,0.97853 -2.35458,1.94748 -2.35458,1.94748 z"
         id="path7122"
         style="fill:#e6eaef;fill-opacity:1" />
      <path
         d="m 160.15593,135.24696 c 0,0 0.54188,-0.29285 0.54276,-0.57788 0.002,-0.72437 -1.63289,0.60464 -1.41627,0.60464 -0.3215,0 0.75148,-0.87084 0.75596,-1.22526 0.0101,-0.80119 -2.13516,0.95489 -2.09404,0.96497 -0.37197,-0.0912 2.27025,-2.26838 2.27309,-2.54528 0.008,-0.73322 -1.22386,0.3013 -1.22319,0.32876 -0.0101,-0.41373 2.73182,-2.76184 2.7262,-3.21975 -0.006,-0.46436 -1.03692,0.21319 -2.08102,1.01398 -1.04634,0.8025 -2.11906,1.7334 -2.11889,1.78431 -0.001,-0.34995 2.81142,-2.77191 2.81618,-3.30249 0.009,-1.01046 -1.85006,0.63124 -1.84962,0.6558 -0.008,-0.43947 2.79044,-2.95494 2.7874,-3.48161 -0.006,-1.02181 -3.44729,2.12528 -3.44641,2.2328 -0.002,-0.18475 3.39425,-3.31742 6.41866,-6.48382 3.04409,-3.18701 5.68106,-6.34592 5.50846,-6.68621 -0.25748,-0.50765 -2.90766,2.09205 -5.75742,4.85207 -2.84504,2.75545 -5.91297,5.65751 -5.91203,5.73174 -0.002,-0.1732 3.10319,-3.15942 5.88619,-6.12719 2.783,-2.96777 5.24727,-5.91708 5.16223,-6.01644 -0.21901,-0.2559 -2.74548,2.43583 -5.48048,5.23481 -2.735,2.79898 -5.69979,5.70521 -5.69793,5.87832 -8.5e-4,-0.0789 2.96547,-2.92764 5.59189,-5.8085 2.62642,-2.88086 4.90681,-5.79385 4.66163,-6.00125 -0.39798,-0.33665 -2.63103,1.89479 -4.95188,4.25213 -2.3178,2.35425 -4.74101,4.82513 -4.73838,4.95194 -0.003,-0.13387 2.55748,-2.73968 4.81587,-5.34445 2.2584,-2.60477 4.21511,-5.2085 3.92682,-5.3382 -0.48452,-0.21798 -2.75366,2.14514 -5.10455,4.61127 -2.35089,2.46614 -4.80135,5.03527 -4.80117,5.22932 -7e-5,-0.0756 2.20892,-2.33315 4.21305,-4.57926 2.00414,-2.24611 3.80517,-4.48083 3.68463,-4.51086 -0.34311,-0.0855 -2.13815,1.8135 -3.97582,3.7526 -1.83768,1.93909 -3.72343,3.91827 -3.72309,3.99312 -8.4e-4,-0.18566 1.88277,-2.24736 3.5681,-4.2196 1.69785,-1.98691 3.22836,-3.92835 3.08041,-3.94679 -0.39175,-0.0488 -1.93239,1.54944 -3.46462,3.22321 -1.52212,1.66271 -3.06427,3.43408 -3.06262,3.67616 -1.9e-4,-0.0277 1.66989,-1.79837 3.16883,-3.56678 1.49894,-1.76841 2.82702,-3.53455 2.57633,-3.55321 -0.50417,-0.0375 -1.86744,1.28901 -3.16679,2.63784 -1.29934,1.34884 -2.53685,2.71999 -2.53645,2.77177 -0.002,-0.22938 1.16094,-1.6295 2.15771,-2.94544 1.00315,-1.32437 1.858,-2.58984 1.48458,-2.59206 -1.28236,-0.008 -3.92743,3.1004 -3.92613,3.60298 -2.6e-4,-0.1019 2.7508,-3.30878 1.84477,-3.30878 -1.44415,0 -0.96505,-0.5793 -0.95698,-0.19946 -0.005,-0.25499 0.4955,-0.86907 -0.0869,-0.86907 -1.11809,0 -0.93419,0.65015 -0.93419,0.65015 0,0 0.67906,0.0467 0.3646,0.0467 0.22367,0 0.0702,0.19087 0.0763,0.86906 0.0119,1.31302 0.94541,0.19946 0.95456,0.19946 0.54728,0 -1.88016,2.8039 -1.88498,3.30878 -0.005,0.55157 1.05722,-0.34274 2.07545,-1.38515 1.0152,-1.03931 1.96729,-2.21739 1.89446,-2.21782 0.19491,0.001 -0.68323,1.1701 -1.6569,2.44647 -0.96644,1.26689 -2.05085,2.66965 -2.05269,3.09102 -0.003,0.71553 1.60031,-0.62069 3.09703,-2.1549 1.49195,-1.52931 2.84355,-3.24192 2.67196,-3.2547 0.0816,0.006 -1.27716,1.67861 -2.75374,3.40335 -1.46653,1.71301 -3.07688,3.51344 -3.07796,3.71664 -0.003,0.49636 1.89826,-1.21355 3.62042,-3.0537 1.72271,-1.84073 3.2487,-3.81347 2.99069,-3.84568 -0.0146,-0.002 -1.57873,1.8479 -3.25834,3.79401 -1.66516,1.92936 -3.48663,4.00536 -3.48944,4.37238 -0.005,0.65734 2.21746,-1.24468 4.23846,-3.33185 2.01944,-2.08557 3.80426,-4.35147 3.5546,-4.41387 -0.0278,-0.007 -1.86572,2.13788 -3.85772,4.34829 -1.97553,2.19215 -4.14779,4.50468 -4.15045,4.74184 -0.006,0.5309 2.76102,-1.93214 5.27951,-4.5134 2.52415,-2.58707 4.78435,-5.30977 4.74582,-5.3272 0.15662,0.0708 -1.84322,2.58769 -4.0987,5.16373 -2.23423,2.55177 -4.77627,5.23555 -4.77383,5.51892 0.005,0.57157 2.67599,-1.72938 5.13275,-4.16592 2.46006,-2.4398 4.68479,-5.02497 4.66938,-5.03814 0.13943,0.11917 -2.18543,2.94815 -4.81798,5.80906 -2.63254,2.86092 -5.57873,5.75377 -5.57908,6.00069 -7.2e-4,0.50657 3.18637,-2.20622 6.05006,-5.06123 2.87135,-2.86264 5.39969,-5.89039 5.26342,-6.05191 -0.004,-0.005 -2.51299,2.86185 -5.30681,5.81447 -2.76493,2.92209 -5.88935,6.02155 -5.88921,6.32916 2.8e-4,0.5914 3.23138,-2.06564 6.18269,-4.85183 2.9575,-2.79204 5.616,-5.73076 5.6154,-5.73198 0.0947,0.19133 -2.59636,3.31196 -5.63957,6.4707 -3.0127,3.12706 -6.44638,6.38726 -6.44763,6.69933 -0.005,1.16451 3.47165,-1.93422 3.47355,-2.23279 -0.001,0.19657 -2.83404,2.73278 -2.82971,3.4816 0.007,1.23937 1.85246,-0.41308 1.85759,-0.65579 -0.004,0.21065 -2.85049,2.65135 -2.85633,3.30249 -0.005,0.54885 1.06873,-0.0652 2.13501,-0.86516 1.06706,-0.8005 2.09894,-1.76942 2.09892,-1.93313 2e-5,0.14633 -2.77402,2.51188 -2.76533,3.21975 0.0119,0.97084 1.21235,0.33308 1.22718,-0.32876 8.1e-4,-0.0358 -2.91501,2.39495 -2.30403,2.54528 1.0602,0.26085 2.09612,-0.57549 2.10577,-0.96497 -0.001,0.0566 -1.4511,1.22525 -0.77085,1.22525 1.21838,0 1.41681,-0.15744 1.42362,-0.60464 1.2e-4,-0.008 0.31717,-0.11898 0.31717,-0.11898 z m 10.03347,-13.93258 c 0,0 -4.38638,3.62035 -4.278,3.58752 -0.30664,0.0929 0.78694,-1.03594 1.91994,-2.27324 1.14063,-1.24564 2.29621,-2.57478 2.32933,-2.92421 0.0619,-0.65354 -1.32956,0.50894 -2.77848,1.82192 -1.45324,1.31689 -2.99149,2.79602 -2.97657,2.79537 -0.26701,0.0116 1.53319,-1.82619 3.26996,-3.73184 1.74715,-1.91704 3.40387,-3.86772 3.35183,-4.13878 -0.096,-0.49989 -2.2327,1.76037 -4.54851,4.15831 -2.30285,2.38451 -4.81964,4.91401 -4.81964,4.91401 0,0 2.34428,-2.02509 4.52945,-4.07732 2.1903,-2.05707 4.22667,-4.15093 4.2002,-4.29814 0.0174,0.0969 -1.75754,2.07448 -3.55603,4.02286 -1.79849,1.94838 -3.61662,3.86758 -3.16143,3.84776 0.73727,-0.0321 2.22038,-1.09986 3.48484,-2.20289 1.26909,-1.10706 2.3074,-2.23727 2.32634,-2.4144 -0.0153,0.14321 -1.31018,1.51341 -2.53687,2.8299 -1.2202,1.30954 -2.3455,2.53954 -1.77558,2.36756 2.01668,-0.60858 5.01922,-4.28439 5.01922,-4.28439 z m -3.6315,-0.65834 c 0,0 -2.30796,1.07811 -2.26303,1.07044 -0.31535,0.0538 0.36345,-0.42804 1.05922,-1.02626 0.71802,-0.61735 1.37196,-1.29365 1.42117,-1.72434 0.081,-0.70878 -0.71531,-0.27218 -1.46094,0.24128 -0.79242,0.54569 -1.7384,1.26492 -1.68734,1.28254 -0.13043,-0.045 1.29315,-1.13095 2.29746,-2.2731 1.03146,-1.17303 1.57352,-2.30965 1.34797,-2.61044 -0.36353,-0.48479 -1.25483,0.83015 -2.72938,2.25334 -1.48076,1.42919 -3.69988,2.98462 -3.70015,3.0108 0.002,-0.15884 1.57591,-1.33758 2.62861,-2.50748 1.06362,-1.18204 1.61728,-2.3188 1.31564,-2.45443 -0.49117,-0.22084 -1.03203,0.21241 -1.51961,0.72405 -0.47717,0.50072 -0.95505,1.12338 -0.93068,1.22676 -0.0268,-0.11375 0.75026,-1.04064 1.18038,-1.94824 0.43013,-0.9076 0.52461,-1.79591 0.23949,-1.83252 -0.54519,-0.07 -1.02094,0.71535 -1.58465,1.55972 -0.53408,0.79998 -1.24859,1.79217 -1.24887,1.91392 3.2e-4,-0.14017 0.40743,-0.69349 0.62538,-1.21191 0.21795,-0.51842 0.25776,-1.00193 -0.13102,-1.00245 -1.313,-0.002 -0.50339,-0.20146 -0.50339,-0.20146 0,0 0.23722,0.89849 0.11853,0.89833 0.41899,5.6e-4 -0.67991,1.52562 -0.76601,2.21435 -0.0741,0.59272 1.10371,-0.15026 2.06648,-1.23453 0.91131,-1.02632 1.33918,-2.22006 1.19318,-2.2391 0.10998,0.0143 -0.14304,0.82604 -0.64084,1.7009 -0.4978,0.87485 -1.27304,1.81287 -1.24284,2.07986 0.0539,0.47646 0.8522,0.0474 1.57244,-0.57593 0.6967,-0.60297 1.19239,-1.33909 1.11717,-1.37488 0.1256,0.0598 -0.57615,1.15915 -1.72675,2.31413 -1.1506,1.15499 -2.7886,2.36558 -2.82622,2.64777 -0.0609,0.45703 2.40949,-0.79952 4.25797,-2.22298 1.83527,-1.41327 2.86643,-2.96291 2.81736,-3.04115 0.0981,0.15638 -0.6177,1.2824 -1.7868,2.47467 -1.14385,1.16653 -2.69852,2.32209 -2.45773,2.40887 0.41356,0.14904 1.30196,-0.21613 2.03472,-0.62729 0.73208,-0.41079 1.29336,-0.86646 1.30049,-0.89654 -0.0606,0.25581 -0.87613,0.94969 -1.74583,1.62354 -0.84293,0.65312 -1.64571,1.22298 -1.07199,1.12707 0.96399,-0.16117 1.85997,-0.5996 2.47945,-1.00326 0.61821,-0.40282 0.95096,-0.76405 0.95096,-0.76405 z"
         id="path7124"
         style="fill:#e6eaef;fill-opacity:1" />
      <path
         d="m 192.03873,135.08433 c 0,0 -0.46706,-0.20286 -0.24315,-0.20286 -0.31398,0 -0.16324,-0.12208 -0.16185,-0.36311 0.004,-0.68228 -1.32812,0.40369 -0.95346,0.40369 -0.16346,0 0.90924,-0.87275 0.91353,-1.53421 0.007,-1.12336 -2.3823,0.88746 -2.26967,1.04383 -0.0773,-0.10731 2.61923,-2.34889 2.6198,-2.75513 0.001,-0.86449 -3.28604,1.90455 -3.286,1.91769 -0.001,-0.43068 2.79656,-2.79811 2.80227,-3.44308 0.01,-1.1169 -2.91437,1.41329 -2.91388,1.69032 -3.1e-4,-0.17886 2.82146,-2.62332 2.82449,-2.91556 0.008,-0.77384 -1.51264,0.57204 -1.51239,0.58362 -0.01,-0.45247 2.77925,-2.96863 2.77392,-3.52572 -0.0101,-1.05261 -3.41946,2.08138 -3.41372,2.54926 -8e-5,-0.007 2.82847,-2.58015 2.82841,-3.10017 -1e-4,-0.77208 -3.70439,2.1499 -3.7043,2.92199 -5e-5,0.0378 2.87575,-2.58424 2.8838,-3.18259 0.0149,-1.11142 -2.41891,1.17091 -2.41556,1.7153 3.3e-4,0.0544 2.87023,-2.62434 2.8744,-3.31758 0.007,-1.21654 -2.60225,1.29233 -2.60204,1.31195 -0.005,-0.48427 2.879,-3.29503 2.88029,-4.20965 0.001,-0.73576 -0.98923,-0.0846 -1.95618,0.73561 -0.97232,0.8248 -1.94726,1.8324 -1.83017,1.8324 -0.15197,0 0.88568,-1.08159 1.92077,-2.2215 1.04003,-1.14536 2.06346,-2.33268 2.06293,-2.57141 -0.001,-0.51929 -1.3108,0.62029 -2.63081,1.88334 -1.32205,1.26501 -2.67231,2.65935 -2.52261,2.65935 -0.11936,0 1.30006,-1.44254 2.67676,-2.94809 1.38484,-1.51446 2.70467,-3.06523 2.70295,-3.32621 -0.004,-0.54784 -0.93369,0.2067 -1.87761,1.1613 -0.94143,0.95209 -1.9324,2.13429 -1.9316,2.42921 1.4e-4,0.0533 2.96749,-3.05897 2.97592,-3.95234 0.0149,-1.57976 -1.85963,0.65826 -1.85528,0.84159 -0.007,-0.29716 2.91537,-3.58104 2.90891,-4.13997 -0.007,-0.59596 -0.7942,0.0412 -1.58524,0.89208 -0.78981,0.84955 -1.61826,1.94403 -1.61241,2.25608 0.001,0.0538 2.95171,-3.30695 2.94879,-3.74872 -0.007,-1.07704 -2.70531,2.08958 -2.69591,2.48019 -0.005,-0.20217 3.07123,-3.82676 2.42683,-4.09946 -1.02672,-0.4345 -2.5966,1.44217 -2.5825,2.08482 3.7e-4,0.0168 1.82256,-2.1793 1.1699,-2.1793 -1.19078,0 -1.40088,0.25902 -1.39683,0.48486 -0.007,-0.4171 -0.59114,0.0764 -0.59114,0.0764 0,0 0.0113,-0.22534 0.0162,0.62042 0.009,1.48867 1.64694,-0.48487 1.40273,-0.48487 0.29391,0 -1.20026,1.78403 -1.19639,2.17931 0.01,1.01343 2.63078,-2.07507 2.60784,-2.08483 0.37547,0.15972 -2.48378,3.5021 -2.47666,4.09947 0.0142,1.19014 2.72263,-1.86317 2.72605,-2.48019 -1e-4,0.0182 -2.99656,3.41454 -2.99435,3.74871 0.006,0.91618 3.23563,-2.66723 3.23591,-3.14816 -8e-5,0.14299 -2.96704,3.46394 -2.95922,4.13997 0.0144,1.24436 1.86326,-0.73736 1.86551,-0.84159 -0.0107,0.49434 -3.02102,3.63965 -3.02397,3.95234 -0.004,0.42862 0.98372,-0.34721 1.95294,-1.29614 0.97228,-0.95191 1.89858,-2.05451 1.89991,-2.29436 -3.1e-4,0.0574 -1.42984,1.62597 -2.86881,3.18019 -1.43898,1.55423 -2.88589,3.0941 -2.58716,3.0941 1.1356,0 5.20387,-4.06241 5.20864,-4.54269 -4.4e-4,0.0439 -1.12768,1.24214 -2.22112,2.42939 -1.09344,1.18725 -2.15219,2.36353 -1.82084,2.36353 1.20082,0 3.81759,-2.56967 3.81757,-2.56802 -0.007,0.54944 -2.93031,3.38946 -2.93147,4.20965 -0.002,1.32407 2.61474,-1.133 2.61799,-1.31194 -0.006,0.34436 -2.91309,3.04539 -2.91472,3.31757 -0.005,0.76213 2.42983,-1.45854 2.43641,-1.7153 -0.007,0.25631 -2.91868,2.89911 -2.92249,3.18259 -0.007,0.54264 3.73252,-2.37935 3.73982,-2.92198 -0.002,0.18377 -2.86613,2.77657 -2.86609,3.10016 1e-4,0.79848 3.44401,-2.28049 3.44471,-2.54926 -5.9e-4,0.22675 -2.82405,2.76389 -2.81678,3.52572 0.0105,1.09382 1.50501,0.0589 1.51949,-0.58362 6.5e-4,-0.0288 -2.85492,2.43277 -2.85993,2.91556 -0.01,0.93869 2.93145,-1.54875 2.93442,-1.69032 -0.007,0.33035 -2.83769,2.71652 -2.84412,3.44308 -0.0103,1.17038 3.30446,-1.56019 3.30931,-1.91769 -0.001,0.10075 -2.85995,2.46328 -2.65329,2.75513 0.41175,0.58148 2.28099,-0.97014 2.28236,-1.04382 -0.007,0.36226 -1.45439,1.5342 -0.93217,1.5342 1.06034,0 0.94949,0.0907 0.95836,-0.40368 9.5e-4,-0.0531 -0.5153,0.36311 0.15743,0.36311 1.21227,0 1.10567,-0.49401 1.10567,-0.49401 z m -13.9417,-0.009 c 0,0 -0.46142,-0.20745 -0.44071,-0.20745 -0.51718,0 0.8464,-1.11217 0.84209,-1.85796 -0.007,-1.19245 -2.88821,1.20024 -2.74906,1.27806 -0.1806,-0.101 1.97127,-1.88742 1.97336,-2.26313 0.005,-0.83321 -2.27389,1.08651 -2.27047,1.33213 -0.003,-0.19584 2.76316,-2.5365 2.76245,-2.93848 -0.002,-0.86767 -2.90286,1.62871 -2.89689,2.11952 5.3e-4,0.0434 2.89843,-2.42981 2.89719,-3.13569 -0.002,-1.17882 -2.65892,1.15003 -2.65542,1.36836 -0.004,-0.23926 2.53811,-2.47538 2.53811,-2.91001 0,-0.7137 -3.48835,1.9843 -3.48835,2.698 8e-5,0.043 3.73374,-3.26574 3.73241,-3.6068 -0.003,-0.8315 -3.94166,2.71282 -3.94206,3.02257 2.1e-4,-0.16032 3.0593,-2.88809 3.06759,-3.69635 0.0134,-1.31056 -2.83354,1.30987 -2.83237,1.80544 3e-5,0.0131 3.46213,-3.34619 3.46213,-3.34619 0,0 -4.23899,3.73373 -4.24202,4.04305 -0.008,0.79094 2.85367,-1.77651 2.85432,-1.80543 -0.0106,0.47338 -3.10615,3.22264 -3.11252,3.69635 -0.0127,0.94379 3.97486,-2.54622 3.9788,-3.02257 -0.001,0.13857 -3.7751,3.46823 -3.77625,3.6068 -0.006,0.55247 3.51547,-2.14553 3.52114,-2.698 -0.001,0.11119 -2.5756,2.36568 -2.57348,2.91 0.004,1.00193 2.67119,-1.28601 2.67205,-1.36836 -0.004,0.39059 -2.9353,2.88091 -2.9353,3.13569 0,0.70213 2.91877,-1.74536 2.92266,-2.11952 -9.6e-4,0.0915 -2.79904,2.44834 -2.79817,2.93849 0.002,0.9316 2.27981,-0.94538 2.28665,-1.33214 -0.001,0.0707 -2.39194,2.04292 -2.00086,2.26313 0.70864,0.39903 2.7646,-1.27941 2.7646,-1.27806 -0.003,0.44802 -1.74061,1.85796 -0.86468,1.85796 1.41544,0 1.30306,-0.48941 1.30306,-0.48941 z m 10.25205,-14.40596 c 0,0 -3.59707,2.90227 -3.05565,2.90227 0.44093,0 1.85497,-2.13131 1.41404,-2.13131 -0.77763,0 -4.63165,2.71291 -3.85402,2.71291 0.12519,0 2.33989,-2.92256 2.21471,-2.92256 -0.78443,0 -3.85675,2.59795 -3.07232,2.59795 0.23739,0 2.90795,-2.95638 2.67055,-2.95638 -0.60255,0 -4.47225,3.2607 -3.86969,3.2607 -0.52471,0 2.21009,-2.67909 1.68537,-2.67909 -0.9656,0 -3.94731,2.09749 -2.98171,2.09749 0.35071,0 2.16602,-2.42211 1.81531,-2.42211 -0.59539,0 -2.09901,1.21641 -3.50514,2.45451 -1.40613,1.2381 -2.71656,2.49788 -2.71571,2.58464 -0.002,-0.15536 1.18928,-1.34879 2.23938,-2.48758 1.05458,-1.14365 1.98033,-2.24724 1.63268,-2.24724 -1.23343,0 -3.90665,2.62119 -3.90517,2.77657 -0.003,-0.35466 2.86209,-3.17449 2.86215,-3.94814 5e-5,-0.66607 -0.85077,-0.11869 -1.70403,0.59493 -0.85771,0.71735 -1.73946,1.61213 -1.73947,1.65948 5e-5,-0.43502 3.49389,-4.00378 3.49614,-4.95665 0.004,-1.85705 -2.17876,1.1427 -2.17464,1.31575 -0.001,-0.0544 2.16014,-2.37389 2.16116,-2.76668 0.003,-0.98964 -3.09323,2.38162 -3.08988,2.85498 -6.1e-4,-0.0866 2.59284,-2.87953 2.59754,-3.26276 0.0122,-0.9914 -2.34378,1.61195 -2.3378,2.10881 -0.003,-0.22079 3.54497,-4.16378 3.54232,-4.38458 -0.006,-0.49473 -0.89671,0.30666 -1.80568,1.27556 -0.90622,0.96596 -1.86097,2.12649 -1.8589,2.33536 -0.001,-0.14874 2.83683,-3.33636 2.83898,-3.762 0.003,-0.53234 -0.74328,0.0851 -1.4996,0.82756 -0.75922,0.74529 -1.54399,1.62411 -1.54396,1.62876 -0.004,-0.58613 3.26831,-4.42123 2.61315,-4.42123 -1.1933,0 -2.2683,1.29723 -2.259,1.9769 8.2e-4,0.0602 1.60837,-1.85517 0.98079,-1.85517 -1.1657,0 -1.06711,-0.11917 -1.06365,0.16035 -0.004,-0.3628 -0.24563,-0.28884 -0.24563,-0.28884 0,0 -0.33398,0.19471 -0.3338,0.98571 3.4e-4,1.4333 1.3349,-0.16035 1.0656,-0.16035 0.26882,0 -1.00388,1.50235 -1.00334,1.85517 0.001,0.9723 2.52473,-1.9769 2.28302,-1.9769 0.29642,0 -2.66097,3.43813 -2.66688,4.42123 -0.005,0.78312 0.76453,0.33881 1.54387,-0.4 0.77817,-0.7377 1.52404,-1.73634 1.52955,-2.05633 -6e-5,0.003 -2.88351,3.22763 -2.88471,3.76201 -0.001,0.55232 0.94745,-0.17528 1.88297,-1.13773 0.93796,-0.96496 1.82533,-2.13269 1.82549,-2.47319 1.2e-4,-0.24998 -3.59548,4.1346 -3.5956,4.38457 -1.2e-4,1.0202 2.34803,-1.47841 2.36343,-2.10881 5.4e-4,-0.0222 -2.63487,2.80292 -2.6372,3.26276 -0.005,1.01976 3.1157,-2.25301 3.12458,-2.85498 8e-5,-0.005 -2.19971,2.34484 -2.19478,2.76668 0.0114,0.97304 2.19041,-1.30127 2.19062,-1.31575 -0.008,0.56593 -3.54671,4.16848 -3.55638,4.95666 -0.008,0.6553 0.86862,0.13519 1.74583,-0.57871 0.87632,-0.71317 1.72415,-1.6004 1.72507,-1.67571 -0.005,0.40629 -2.90833,3.25346 -2.91014,3.94814 -0.002,0.59925 1.05278,-0.0887 2.06985,-0.93651 1.01332,-0.84473 1.96986,-1.84006 1.86907,-1.84006 0.33656,0 -3.92808,4.08509 -3.92961,4.73482 -0.001,0.56966 1.69613,-0.68577 3.30422,-2.0907 1.60561,-1.40274 3.09999,-2.94844 2.97788,-2.94844 -0.008,0 -1.85279,2.42211 -1.84475,2.42211 0.4694,0 3.4766,-2.0975 3.00721,-2.0975 0.003,0 -1.71465,2.6791 -1.71794,2.6791 0.83244,0 4.74177,-3.2607 3.90932,-3.2607 -0.12135,0 -2.82784,2.95637 -2.70648,2.95637 0.65057,0 3.75447,-2.59794 3.10389,-2.59794 0.38172,0 -2.63195,2.92256 -2.25023,2.92256 0.65737,0 4.54436,-2.71292 3.887,-2.71292 0.0822,0 -1.35776,2.13131 -1.43994,2.13131 0.91991,0 3.78069,-3.59913 3.78069,-3.59913 z"
         id="path7126"
         style="fill:#e6eaef;fill-opacity:1" />
    </g>
  </g>
</svg>
